<svg id="Layer_1" data-name="Layer 1" xmlns="http://www.w3.org/2000/svg" xmlns:xlink="http://www.w3.org/1999/xlink" viewBox="0 0 70 70"><defs><style>.cls-1{fill:none;}.cls-2{clip-path:url(#clip-path);}.cls-3{fill:#025375;}</style><clipPath id="clip-path" transform="translate(-271 -361)"><rect class="cls-1" x="271" y="361" width="70" height="70"/></clipPath></defs><title>earth</title><g class="cls-2"><path class="cls-3" d="M309.33,384.83c-0.1-.19,1-0.29,1.19-0.29s-0.57,1.31-1.19.29m-6.27-9c-0.12.18,0.27-.12,0.32-0.09s-0.21.28-.15,0.4a1.12,1.12,0,0,1,0,1c0,0.25-.3.14-0.43,0.27s0.75,0.22.76,0.25-1.09.26-.88,0.5c0.28,0.4,2.4-.57,2.06-0.51,0.65-.33.08-0.36-0.28-0.56a4.5,4.5,0,0,0-.62-2,1.37,1.37,0,0,1,.26-0.29c-0.6-.87-1.05,1.06-1.05,1.06M341,396a35,35,0,1,1-35-35,35,35,0,0,1,35,35m-24.24-15.67c0-.43-0.55-0.83-1.11-0.09a7.87,7.87,0,0,0-.53,1.62c-0.31.51,1.65,1,1.65,0.51,0.07-.81,2.14-0.19,2.54-0.08,0.72,0.2,1.88-.66.62-1.11-1-.38-1.58-0.78-1.68-1.52,0,0,.55-0.51.31-0.48-0.64.08-1.79,2.29-1.79,1.15M335.13,396a27.7,27.7,0,0,0-1-7.67,1.77,1.77,0,0,0-1-1.1c-0.75-.29-3.9,1.74-4.37.74-0.31-.67-0.95.43-1.67,0-0.35-.19-1.32-1.5-1.77-1.34-0.9.33,1.38,2.81,2,3.14,0.59-.45,2.48-1.36,2.89-0.11,0.78,2.34-2.15,4.92-3.65,6.27-2.24,2-1.82-1.31-3.35-2.48-0.8-.61-0.8-1.92-1.6-2.38a10,10,0,0,1-2-2.37,0.74,0.74,0,0,1,0,.48c-0.27.21-.86-0.78-0.92-0.94,0,0.86,1.4,2.23,1.86,2.92,0.79,1.18,1.21,2.9,2.18,3.87,0.52,0.52,2.5,2.67,3,2.62s2.34-1.34,2.66-1.26c1.88,0.44-4.42,9.35-5,10.45-0.49.93,0.4,3.21,0.33,4.3-0.08,1.26-1.08,1.67-2,2.36s-0.77,2.17-1.62,2.7c-1.51.93-2.59,3.95-4.73,3.93-0.63,0-3.32,1-3.68,0a16.37,16.37,0,0,0-1-2.05c-0.38-.73,0-1.47-0.5-2.11a9,9,0,0,1-1.48-2,3.23,3.23,0,0,1,.82-2.06c0.67-.34.13-1.34,0-1.91a3.88,3.88,0,0,0-1.55-2.48c-1.13-.87-0.54-1.57-0.28-2.81a1,1,0,0,0-1.16-1.14c-1.64.48-1.14-1.29-2.34-1.2a11.14,11.14,0,0,0-2.37.85c-1,.3-2-0.24-3-0.36-4.1-.52-5.44-5.21-4.37-8.6,0.11-.55-0.33-1.58-0.14-2a10.55,10.55,0,0,1,2.22-3,8.13,8.13,0,0,1,1.6-.66c0.84-.53.85-1.61,1.67-2.28,1.17-1,2.76-.93,4.28-1.13,0.81-.11,3.9-0.78,4.38-0.18,0,0.11.56,1.77-.05,1.67,1.26,0.07,3.06,2.18,4.26,1.69,0.62-.26.39-2.15,1.66-1.23,0.76,0.55,4.19.79,4.9,0.2,0.44-.36.69-2.71,0.15-3,0.34,0.33-1.78.36-2,.28-0.35-.13-0.68.34-1.24,0.08,0.34,0.16-1.88-1-.63-1.95-0.52.38-1-.11-1.57,0.31-0.39.32,0.18,0.53-.37,0.8-0.88.45-1.55-1.53-1.88-1.75s-3-2.06-2.24-.86c0.5,0.84,2.59,2.1,2.3,2.29-0.11.08-.6-0.83-0.6-0.17,0.15-.39.05,1.69-0.31,1-0.16-.26.26-0.4,0-0.78a2.48,2.48,0,0,0-.79-0.66,8,8,0,0,0-1.86-1.69,15.22,15.22,0,0,0-2.4.32,5.12,5.12,0,0,0-.52.91,5.8,5.8,0,0,0-1.22.62c-0.3.27-.23,0.83-0.46,1s-2.23.85-2.24,0.88c0.09-.22-1.42-0.5-1.32-0.94a8.9,8.9,0,0,0,.49-2.53c-0.14-.58,3.13.83,3.35-0.69,0.08-.65.13-1.42-0.92-1.53a7.75,7.75,0,0,0,2.33-1,3.72,3.72,0,0,1,2.11-1.29c0.83,0,.65-1.21,1-1.79,0.38,0.16-.2,1.1.25,1.48,0-.3,1.3.16,1.43,0.1,0.31-.16,2-0.07,1.74-0.86s0.15-.57.53-0.74c-0.07,0,1-1.8,1.17-1.2-0.12-.62-1.23.22-1.61,0.19-0.89-.07-0.51-1.52-0.17-1.94s-0.71-.74-0.72-0.11c0,1-.91,1.83-0.71,3.11,0.32,1.92-2.14-.46-2.36-0.33-0.82.49-1.48-.62-1.06-1.3s1.47-.65,1.9-1.39a5.71,5.71,0,0,1,1.12-1.52c1.56-1.31,2-.26,3.54-0.12s0.51,0.36.31,0.94,0.83,0.75,1.19.29a7.57,7.57,0,0,0,.87-1.44c0.26-.65,2.63-0.57,1-1.56a26,26,0,0,0-9-2c-0.69,0-1.17.76-1.69,1.2-1,.86-3.7,2.55-5.18,2s-4.76,1.93-5.27,1.94c-0.19,0,0-1.85,1-2-0.45.06,3.64-2.07,3.53-2.51s-8.16,2.4-7.8,3c0.17,0.27.87,0.27,0,.86-0.52.32-1.09,2.33-1.58,2.33-1.47.65-1.57-1.27-3.2,1.19-0.33.48-2.07,0.52-2.61,1.05a29.05,29.05,0,0,0-7.52,15.11,4,4,0,0,0,1.1.82c0.33,0.39.33,2.08,0.49,2.63,0.4,1.39,1.4,2.17,2.16,3.44,0.45,0.76,1.2,2.67,1,3.46,0.32-.52,3.12,2.38,3.64,3,1.21,1.42,2.14,3.14.18,4.54-0.63.46,1,3.29,0.14,4-0.11.09-.79,0.11-1.06,0.27-1,.64-0.57,2.2.06,2.87A29.13,29.13,0,0,0,335.13,396m-33.56-18.54a1,1,0,0,0,.91-0.64c0-.43.13-0.13,0.23-0.29s-0.2-.4-0.32-0.43a0.65,0.65,0,0,0-.43.3c-0.06,0-.14,0-0.21.05a1.87,1.87,0,0,0-.2.25c-0.06.08,0,.08,0,0.14a0.51,0.51,0,0,1-.25.31c-0.24.25,0,.41,0.26,0.3h0" transform="translate(-271 -361)"/></g></svg>