<svg id="Layer_1" data-name="Layer 1" xmlns="http://www.w3.org/2000/svg" xmlns:xlink="http://www.w3.org/1999/xlink" viewBox="0 0 177.07 50"><defs><style>.cls-1{fill:none;}.cls-2{fill:#005175;}.cls-3{clip-path:url(#clip-path);}.cls-4{fill:#989898;}</style><clipPath id="clip-path" transform="translate(-217.5 -371.68)"><rect class="cls-1" x="217.5" y="371.68" width="177.07" height="50"/></clipPath></defs><title>footer-logo</title><polygon class="cls-2" points="100.8 10.51 95.58 18.51 95.23 18.51 89.97 10.51 89.97 22.64 88.91 22.64 88.91 8.99 90.16 8.99 95.38 16.95 100.55 8.99 101.84 8.99 101.84 22.64 100.8 22.64 100.8 10.51"/><polygon class="cls-2" points="107.74 15.29 115.73 15.29 115.73 16.25 107.74 16.25 107.74 21.63 116.36 21.63 116.36 22.64 106.71 22.64 106.71 8.99 116.12 8.99 116.12 9.99 107.74 9.99 107.74 15.29"/><polygon class="cls-2" points="121.6 8.99 121.6 21.64 129.28 21.64 129.28 22.64 120.55 22.64 120.55 8.99 121.6 8.99"/><rect class="cls-2" x="133.16" y="8.99" width="1.03" height="13.65"/><polygon class="cls-2" points="140.12 8.99 140.12 21.64 147.8 21.64 147.8 22.64 139.06 22.64 139.06 8.99 140.12 8.99"/><polygon class="cls-2" points="152.71 8.99 152.71 21.64 160.39 21.64 160.39 22.64 151.65 22.64 151.65 8.99 152.71 8.99"/><g class="cls-3"><path class="cls-2" d="M394.51,387.51c0,3.59-2.3,7-6.88,7s-6.88-3.47-6.88-7.08,2.28-7,6.88-7,6.9,3.37,6.88,7.06m-12.73,0c0,3.08,2,6.08,5.85,6.08s5.87-3,5.87-6.08-1.95-6.06-5.87-6.06-5.87,2.85-5.85,6.06" transform="translate(-217.5 -371.68)"/><polygon class="cls-4" points="89.83 34.32 97.13 34.32 97.13 35.19 89.83 35.19 89.83 40.1 97.69 40.1 97.69 41.03 88.89 41.03 88.89 28.58 97.48 28.58 97.48 29.49 89.83 29.49 89.83 34.32"/><path class="cls-4" d="M331,406.48a6.81,6.81,0,0,1-1.46,4.25l1.58,1.53-0.6.62L329,411.39a6.33,6.33,0,0,1-4.23,1.44c-4.23,0-6.33-3-6.3-6.45a6,6,0,0,1,6.3-6.28c4.2,0,6.29,3,6.28,6.38m-11.63-.11c0,3,1.74,5.55,5.35,5.55a5.11,5.11,0,0,0,5.33-5.44c0-2.93-1.78-5.48-5.33-5.48a5.19,5.19,0,0,0-5.35,5.37" transform="translate(-217.5 -371.68)"/><path class="cls-4" d="M344.14,400.26V408c0,6.51-9.53,6.52-9.53,0v-7.73h0.94V408a3.83,3.83,0,1,0,7.65,0v-7.73h0.94Z" transform="translate(-217.5 -371.68)"/><rect class="cls-4" x="130.97" y="28.58" width="0.94" height="12.45"/><polygon class="cls-4" points="140.47 29.45 135.97 29.45 135.97 28.6 145.92 28.6 145.92 29.45 141.43 29.45 141.43 41.03 140.47 41.03 140.47 29.45"/><rect class="cls-4" x="149.46" y="28.58" width="0.94" height="12.45"/><polygon class="cls-4" points="155.79 34.32 163.08 34.32 163.08 35.19 155.79 35.19 155.79 40.1 163.65 40.1 163.65 41.03 154.85 41.03 154.85 28.58 163.43 28.58 163.43 29.49 155.79 29.49 155.79 34.32"/><path class="cls-4" d="M393.41,402.66c-0.91-1.46-2.37-1.67-3.77-1.69s-3.77.53-3.77,2.53c0,1.58,1.71,2,3.81,2.35,2.4,0.46,4.89.89,4.89,3.57s-2.85,3.49-4.92,3.49a5.6,5.6,0,0,1-5.1-2.7l0.85-.43a4.88,4.88,0,0,0,4.25,2.26c1.53,0,4-.43,4-2.63,0-1.87-2-2.28-4.09-2.67-2.28-.44-4.6-0.91-4.6-3.2-0.05-2.63,2.68-3.45,4.73-3.45,1.78,0,3.32.28,4.55,2.12Z" transform="translate(-217.5 -371.68)"/><path class="cls-2" d="M259.36,413.15v-5.21h-6.24l0.18,2.16a1.31,1.31,0,0,1,.21,2.61l0.33,4h9.4v-2.51Z" transform="translate(-217.5 -371.68)"/><path class="cls-2" d="M239.93,413.05l-3.84-6.69a15.53,15.53,0,0,1-5.54,3.25l1.58,1.79a1.31,1.31,0,0,1,1.74,2l3,3.4h7.28v-2.51Z" transform="translate(-217.5 -371.68)"/><path class="cls-2" d="M228.72,414.26l-4.09-1.17v-3.65h0.63a15.47,15.47,0,0,0,10.72-4.9h11.3a2,2,0,0,1,1.95,2s0,0.07,0,.1h11.61l2.52,2.73a1.31,1.31,0,0,1,1.78,1.93l5.08,5.51h7.28v-2.51L273.24,413l-3.49-6,3.9-6.81a1.62,1.62,0,0,1,.54,1.56c0.35-.25,1.42-0.87.85-3a21.9,21.9,0,0,0-2.68-4.76h0l-0.27,0a1.74,1.74,0,1,1,1.74-1.74,1.77,1.77,0,0,1,0,.26,1.73,1.73,0,0,1-.49,1v0h6.1l1.54-2.66a2,2,0,1,1,1-1.69v0l2.47-4.27,0.58-1-8.71-3.15-1.87-2.61-11.59-1.67,1.31,1.93a17.62,17.62,0,0,0-11.83,4.87,17.78,17.78,0,0,1,5.42-.42,17.67,17.67,0,0,0-8.19,4.42,17.87,17.87,0,0,1,5.42-.42,17.64,17.64,0,0,0-8.19,4.42,17.82,17.82,0,0,1,5.42-.42,17.61,17.61,0,0,0-6.46,3h-11v0h-1.62v0H222.35a2.53,2.53,0,0,1,0-5.05h17.17a4.68,4.68,0,0,0,3.6-2.14h0a4.69,4.69,0,0,0-3.66-7.19h-13v0.89l3.91,2.15a1.65,1.65,0,0,1,1.46-.88H239a2.53,2.53,0,0,1,.22,5H221.84a4.69,4.69,0,0,0,.05,9.35h4.91a9.92,9.92,0,0,1-8.44,4.71l0.7,8.72a1.31,1.31,0,0,1,.21,2.61l0.37,4.67h9.07v-2.51Z" transform="translate(-217.5 -371.68)"/><rect class="cls-2" x="76.84" width="1.19" height="50"/></g></svg>