<svg id="Layer_1" data-name="Layer 1" xmlns="http://www.w3.org/2000/svg" viewBox="0 0 82.99 81.77"><defs><style>.cls-1{fill:#005276;}.cls-2{fill:#989898;}</style></defs><title>logo</title><path class="cls-1" d="M278.31,417.45l-5-1.44v-4.49H274a19,19,0,0,0,13.19-6h13.9a2.41,2.41,0,0,1,2.4,2.41s0,0.08,0,.13h14.28l3.1,3.36a1.61,1.61,0,0,1,2.18,2.37l6.25,6.77h9v-3.09L333.08,416l-4.29-7.42,4.8-8.38c0.6,0.28.7,1.23,0.67,1.92,0.43-.31,1.75-1.07,1-3.69-0.43-1.63-2.1-4-3.3-5.85h0l-0.33,0a2.11,2.11,0,0,1-.73-0.13,2.13,2.13,0,1,1,2.25-.5v0h7.5l1.89-3.27a2.43,2.43,0,1,1,1.17-2.07s0,0,0,.05l3-5.25,0.71-1.18-10.72-3.88-2.3-3.21-14.26-2.06,1.62,2.37a21.68,21.68,0,0,0-14.55,6A21.82,21.82,0,0,1,314,379a21.72,21.72,0,0,0-10.08,5.44,21.89,21.89,0,0,1,6.67-.52,21.69,21.69,0,0,0-10.08,5.44,21.94,21.94,0,0,1,6.67-.52,21.67,21.67,0,0,0-7.95,3.65H285.65v0h-2v-0.06H270.47a3.11,3.11,0,0,1,0-6.22h21.12a5.76,5.76,0,0,0,4.43-2.63h0a5.76,5.76,0,0,0-4.51-8.85h-16v1.09l4.81,2.64a2,2,0,0,1,1.8-1.08H291a3.11,3.11,0,0,1,.27,6.2H269.85a5.76,5.76,0,0,0,.06,11.5h6a12.2,12.2,0,0,1-10.38,5.79l0.86,10.73a1.61,1.61,0,0,1,.25,3.21l0.46,5.75h11.16v-3.09Z" transform="translate(-264.51 -371.11)"/><polygon class="cls-1" points="12.71 55.09 8.35 61.76 8.06 61.76 3.67 55.09 3.67 65.21 2.79 65.21 2.79 53.82 3.83 53.82 8.19 60.46 12.5 53.82 13.58 53.82 13.58 65.21 12.71 65.21 12.71 55.09"/><polygon class="cls-1" points="18.5 59.08 25.18 59.08 25.18 59.88 18.5 59.88 18.5 64.37 25.7 64.37 25.7 65.21 17.64 65.21 17.64 53.82 25.5 53.82 25.5 54.65 18.5 54.65 18.5 59.08"/><polygon class="cls-1" points="30.07 53.82 30.07 64.38 36.48 64.38 36.48 65.21 29.19 65.21 29.19 53.82 30.07 53.82"/><rect class="cls-1" x="39.72" y="53.82" width="0.86" height="11.39"/><polygon class="cls-1" points="45.53 53.82 45.53 64.38 51.94 64.38 51.94 65.21 44.65 65.21 44.65 53.82 45.53 53.82"/><polygon class="cls-1" points="56.04 53.82 56.04 64.38 62.45 64.38 62.45 65.21 55.16 65.21 55.16 53.82 56.04 53.82"/><path class="cls-1" d="M329.21,430.25a4.89,4.89,0,1,0,9.78,0,4.73,4.73,0,0,0-4.9-5.06c-3.27,0-4.9,2.38-4.88,5.06m10.63,0c0,3-1.92,5.87-5.75,5.87s-5.74-2.9-5.74-5.91,1.9-5.86,5.74-5.86,5.76,2.81,5.75,5.89" transform="translate(-264.51 -371.11)"/><path class="cls-2" d="M277.69,447.43a4.46,4.46,0,1,0,4.47-4.48,4.33,4.33,0,0,0-4.47,4.48m9.71,0.09a5.68,5.68,0,0,1-1.22,3.55l1.32,1.28-0.5.52-1.31-1.25a5.28,5.28,0,0,1-3.53,1.2,5.31,5.31,0,1,1,5.24-5.3" transform="translate(-264.51 -371.11)"/><path class="cls-2" d="M298.6,442.26v6.46c0,5.43-8,5.45-8,0v-6.46h0.79v6.46a3.19,3.19,0,1,0,6.38,0v-6.46h0.79Z" transform="translate(-264.51 -371.11)"/><polygon class="cls-2" points="3.58 76.02 9.66 76.02 9.66 76.74 3.58 76.74 3.58 80.84 10.14 80.84 10.14 81.61 2.79 81.61 2.79 71.22 9.96 71.22 9.96 71.98 3.58 71.98 3.58 76.02"/><rect class="cls-2" x="38.32" y="71.22" width="0.79" height="10.39"/><polygon class="cls-2" points="45.03 71.94 41.27 71.94 41.27 71.23 49.59 71.23 49.59 71.94 45.83 71.94 45.83 81.6 45.03 81.6 45.03 71.94"/><rect class="cls-2" x="52.11" y="71.22" width="0.79" height="10.39"/><polygon class="cls-2" points="57.71 76.02 63.8 76.02 63.8 76.74 57.71 76.74 57.71 80.84 64.27 80.84 64.27 81.61 56.92 81.61 56.92 71.22 64.09 71.22 64.09 71.98 57.71 71.98 57.71 76.02"/><path class="cls-2" d="M338.51,444.32a3.37,3.37,0,0,0-3.15-1.41c-1.22,0-3.15.45-3.15,2.11,0,1.32,1.43,1.63,3.18,2,2,0.39,4.08.74,4.08,3s-2.37,2.91-4.11,2.91a4.67,4.67,0,0,1-4.26-2.26l0.71-.36a4.07,4.07,0,0,0,3.55,1.89c1.28,0,3.31-.36,3.31-2.2,0-1.56-1.71-1.9-3.41-2.23-1.9-.37-3.85-0.76-3.85-2.67,0-2.2,2.24-2.88,3.95-2.88a4,4,0,0,1,3.8,1.77Z" transform="translate(-264.51 -371.11)"/></svg>