<?xml version="1.0" encoding="utf-8"?>
<!-- Generator: Adobe Illustrator 19.2.1, SVG Export Plug-In . SVG Version: 6.00 Build 0)  -->
<svg version="1.1" id="Layer_1" xmlns="http://www.w3.org/2000/svg" xmlns:xlink="http://www.w3.org/1999/xlink" x="0px" y="0px"
	 viewBox="0 0 83 81.8" style="enable-background:new 0 0 83 81.8;" xml:space="preserve">
<style type="text/css">
	.st0{fill:#005276;}
	.st1{fill:#989898;}
	.st2{fill:#005175;}
</style>
<title>logo</title>
<path class="st0" d="M13.8,46.3l-5-1.4v-4.5h0.7c5-0.2,9.8-2.3,13.2-6h13.9c1.3,0,2.4,1.1,2.4,2.4c0,0,0,0.1,0,0.1h14.3l3.1,3.4
	c0.7-0.6,1.7-0.6,2.3,0.1s0.6,1.7-0.1,2.3l6.2,6.8h9v-3.1l-5.2-1.5l-4.3-7.4l4.8-8.4c0.6,0.3,0.7,1.2,0.7,1.9c0.4-0.3,1.8-1.1,1-3.7
	c-0.4-1.6-2.1-4-3.3-5.9l0,0h-0.3c-0.2,0-0.5,0-0.7-0.1c-1.1-0.4-1.7-1.6-1.3-2.7c0.4-1.1,1.6-1.7,2.7-1.3c1.1,0.4,1.7,1.6,1.3,2.7
	c-0.1,0.3-0.3,0.5-0.5,0.8l0,0h7.5l1.9-3.3c-1.1,0.7-2.6,0.3-3.3-0.8s-0.3-2.6,0.8-3.3c1.1-0.7,2.6-0.3,3.3,0.8
	c0.2,0.4,0.4,0.8,0.4,1.3c0,0,0,0,0,0l3-5.2l0.7-1.2L72.2,5.2L69.9,2L55.6,0l1.6,2.4c-5.4,0.1-10.6,2.2-14.5,6
	c2.2-0.5,4.5-0.7,6.8-0.4c-3.8,0.9-7.3,2.8-10.1,5.4c2.2-0.5,4.4-0.7,6.7-0.5c-3.8,0.9-7.3,2.8-10.1,5.4c2.2-0.5,4.4-0.7,6.7-0.5
	c-2.9,0.7-5.6,1.9-8,3.6H21.1l0,0h-2v-0.1H6c-1.7,0-3.1-1.4-3.1-3.1c0-1.7,1.4-3.1,3.1-3.1h21.1c1.8-0.1,3.4-1.1,4.4-2.6l0,0
	c1.7-2.7,0.9-6.2-1.8-8C28.9,4,28,3.7,27,3.6H11v1.1l4.8,2.6c0.3-0.7,1-1.1,1.8-1.1h8.9c1.7,0,3.1,1.5,3,3.2c0,1.6-1.2,2.8-2.8,3
	H5.3c-3.2,0.2-5.6,2.9-5.4,6.1c0.2,2.9,2.5,5.2,5.4,5.4h6C9.2,27.6,5.2,29.8,1,29.8l0.9,10.7c0.9-0.1,1.7,0.6,1.7,1.5
	c0.1,0.9-0.6,1.6-1.5,1.7l0.5,5.8h11.2L13.8,46.3L13.8,46.3z"/>
<polygon class="st0" points="12.7,55.1 8.4,61.8 8.1,61.8 3.7,55.1 3.7,65.2 2.8,65.2 2.8,53.8 3.8,53.8 8.2,60.5 12.5,53.8 
	13.6,53.8 13.6,65.2 12.7,65.2 "/>
<polygon class="st0" points="18.5,59.1 25.2,59.1 25.2,59.9 18.5,59.9 18.5,64.4 25.7,64.4 25.7,65.2 17.6,65.2 17.6,53.8 
	25.5,53.8 25.5,54.7 18.5,54.7 "/>
<polygon class="st0" points="30.1,53.8 30.1,64.4 36.5,64.4 36.5,65.2 29.2,65.2 29.2,53.8 "/>
<rect x="39.7" y="53.8" class="st0" width="0.9" height="11.4"/>
<polygon class="st0" points="45.5,53.8 45.5,64.4 51.9,64.4 51.9,65.2 44.7,65.2 44.7,53.8 "/>
<polygon class="st0" points="56,53.8 56,64.4 62.5,64.4 62.5,65.2 55.2,65.2 55.2,53.8 "/>
<path class="st0" d="M64.7,59.1c0,2.7,2.2,4.9,4.9,4.9c2.7,0,4.9-2.2,4.9-4.9c0,0,0,0,0,0c0.2-2.6-1.8-4.9-4.4-5.1
	c-0.2,0-0.3,0-0.5,0C66.3,54.1,64.7,56.5,64.7,59.1 M75.3,59.1c0,3-1.9,5.9-5.8,5.9s-5.7-2.9-5.7-5.9s1.9-5.9,5.7-5.9
	S75.3,56.1,75.3,59.1"/>
<path class="st1" d="M13.2,76.3c0,2.5,2,4.5,4.5,4.4c2.5,0,4.5-2,4.4-4.5c0-2.5-2-4.4-4.4-4.4c-2.4-0.1-4.4,1.8-4.5,4.2
	C13.2,76.1,13.2,76.2,13.2,76.3 M22.9,76.4c0,1.3-0.4,2.5-1.2,3.5l1.3,1.3l-0.5,0.5l-1.3-1.2c-1,0.8-2.2,1.2-3.5,1.2
	c-2.9,0-5.3-2.3-5.4-5.2s2.3-5.3,5.2-5.4C20.4,71.1,22.9,73.4,22.9,76.4C22.9,76.4,22.9,76.4,22.9,76.4"/>
<path class="st1" d="M34.1,71.2v6.5c0,5.4-8,5.5-8,0v-6.5h0.8v6.5c0,1.8,1.4,3.2,3.2,3.2s3.2-1.4,3.2-3.2l0,0v-6.5H34.1L34.1,71.2z"
	/>
<polygon class="st1" points="3.6,76 9.7,76 9.7,76.7 3.6,76.7 3.6,80.8 10.1,80.8 10.1,81.6 2.8,81.6 2.8,71.2 10,71.2 10,72 
	3.6,72 "/>
<rect x="38.3" y="71.2" class="st1" width="0.8" height="10.4"/>
<polygon class="st1" points="45,71.9 41.3,71.9 41.3,71.2 49.6,71.2 49.6,71.9 45.8,71.9 45.8,81.6 45,81.6 "/>
<rect x="52.1" y="71.2" class="st1" width="0.8" height="10.4"/>
<polygon class="st1" points="57.7,76 63.8,76 63.8,76.7 57.7,76.7 57.7,80.8 64.3,80.8 64.3,81.6 56.9,81.6 56.9,71.2 64.1,71.2 
	64.1,72 57.7,72 "/>
<path class="st1" d="M74,73.2c-0.7-1-1.9-1.6-3.1-1.4c-1.2,0-3.1,0.5-3.1,2.1c0,1.3,1.4,1.6,3.2,2c2,0.4,4.1,0.7,4.1,3
	s-2.4,2.9-4.1,2.9c-1.7,0.1-3.4-0.8-4.3-2.3l0.7-0.4c0.8,1.2,2.1,1.9,3.5,1.9c1.3,0,3.3-0.4,3.3-2.2c0-1.6-1.7-1.9-3.4-2.2
	c-1.9-0.4-3.9-0.8-3.9-2.7c0-2.2,2.2-2.9,4-2.9c1.5-0.2,3,0.5,3.8,1.8L74,73.2z"/>
<path class="st2" d="M48.9,45v-6.7h-8l0.2,2.8c0.9,0,1.7,0.7,1.8,1.6c0,0.9-0.6,1.7-1.5,1.8l0.4,5.2h12.1v-3.2L48.9,45z"/>
<path class="st2" d="M26.3,45L22,37.4c-1.8,1.6-3.9,2.9-6.2,3.7l1.8,2c0.6-0.5,1.6-0.5,2.1,0.1c0.5,0.6,0.5,1.6-0.1,2.1l3.4,3.8H31
	v-2.8L26.3,45z"/>
</svg>
