<svg id="Layer_1" data-name="Layer 1" xmlns="http://www.w3.org/2000/svg" xmlns:xlink="http://www.w3.org/1999/xlink" viewBox="0 0 120 60"><defs><style>.cls-1{fill:none;}.cls-2{clip-path:url(#clip-path);}.cls-3{fill:#025375;}</style><clipPath id="clip-path" transform="translate(-246 -366)"><rect class="cls-1" x="246" y="366" width="120" height="60"/></clipPath></defs><title>people</title><g class="cls-2"><path class="cls-3" d="M336,426H276c0-1.1,0-2.14,0-3.11,0-6.29.5-9.92,7.94-11.64,8.42-1.95,16.72-3.68,12.73-11C284.84,378.38,293.3,366,306,366c12.46,0,21.13,11.92,9.33,34.2-3.87,7.32,4.13,9.06,12.72,11C335.5,413,336,416.6,336,422.91c0,1,0,2,0,3.09M360,414.93c-6.45-1.49-12.45-2.79-9.55-8.29,8.85-16.71,2.35-25.65-7-25.65-6.32,0-11.24,4.09-11.24,11.62,0,19.52,11.34,8.85,11.23,33.38H366c0-.82,0-1.59,0-2.31,0-4.73-.37-7.46-6-8.76M246,426h22.5c-0.11-24.53,11.23-13.86,11.23-33.38,0-7.54-4.92-11.62-11.24-11.62-9.35,0-15.85,8.94-7,25.65,2.9,5.49-3.1,6.8-9.55,8.29-5.59,1.29-6,4-6,8.76,0,0.72,0,1.49,0,2.31" transform="translate(-246 -366)"/></g></svg>