<svg xmlns="http://www.w3.org/2000/svg" xmlns:xlink="http://www.w3.org/1999/xlink" viewBox="0 0 751.13 400.84"><defs><style>.cls-1,.cls-10,.cls-14,.cls-17,.cls-3{fill:none;}.cls-2{clip-path:url(#clip-path);}.cls-3{stroke:#989898;stroke-width:2px;}.cls-4{fill:#fff;}.cls-5{fill:#145377;}.cls-6{isolation:isolate;}.cls-7{mix-blend-mode:multiply;}.cls-8{clip-path:url(#clip-path-6);}.cls-9{clip-path:url(#clip-path-7);}.cls-10{stroke:#000;}.cls-10,.cls-14,.cls-17{stroke-miterlimit:10;}.cls-10,.cls-14{stroke-width:0.7px;}.cls-11{fill:#f2f2f2;}.cls-12{fill:#e3e8f5;}.cls-13{fill:#f7f8f9;}.cls-14{stroke:#e1ddd7;}.cls-15{clip-path:url(#clip-path-20);}.cls-16,.cls-33{fill:#666;}.cls-17{stroke:#666;stroke-width:0.35px;}.cls-18{clip-path:url(#clip-path-21);}.cls-19{fill:url(#Unnamed_Pattern_1007);}.cls-20{fill:url(#Unnamed_Pattern_1007-43);}.cls-21{fill:url(#Unnamed_Pattern_1007-53);}.cls-22{fill:url(#Unnamed_Pattern_994);}.cls-23{clip-path:url(#clip-path-28);}.cls-24{clip-path:url(#clip-path-29);}.cls-25{fill:url(#Unnamed_Pattern_1007-149);}.cls-26{font-size:11.2px;}.cls-26,.cls-28,.cls-29,.cls-30,.cls-31,.cls-32,.cls-35{fill:#959595;}.cls-26,.cls-28,.cls-29,.cls-30,.cls-32{font-family:Source Sans Pro;}.cls-27{letter-spacing:-2px;}.cls-28{font-size:11.2px;}.cls-29{font-size:11.2px;}.cls-30{font-size:11.2px;}.cls-31{font-size:7.7px;font-family:EngraversMT;}.cls-32{font-size:7.7px;}.cls-33,.cls-34{fill-rule:evenodd;}.cls-34{fill:url(#Unnamed_Pattern_1009);}.cls-35{font-size:7px;font-family:Georgia;font-weight:700;}.cls-36{clip-path:url(#clip-path-34);}</style><clipPath id="clip-path"><rect class="cls-1" width="72" height="72"/></clipPath><clipPath id="clip-path-6"><rect class="cls-1" x="0.86" y="1.09" width="752" height="402"/></clipPath><clipPath id="clip-path-7"><rect class="cls-1" x="1.86" y="2.09" width="750" height="400"/></clipPath><clipPath id="clip-path-20"><rect class="cls-1" x="-60.64" y="-98.15" width="848.2" height="594.6"/></clipPath><clipPath id="clip-path-21"><rect class="cls-1" x="-60.64" y="-98.16" width="848.2" height="594.6"/></clipPath><pattern id="Unnamed_Pattern_1007" data-name="Unnamed Pattern 1007" width="72" height="72" patternTransform="matrix(-0.15, 0.24, 0.24, 0.15, -1952.99, -905.68)" patternUnits="userSpaceOnUse" viewBox="0 0 72 72"><rect class="cls-1" width="72" height="72"/><g class="cls-2"><line class="cls-3" x1="71.75" y1="3.33" x2="144.25" y2="3.33"/><line class="cls-3" x1="71.75" y1="17.73" x2="144.25" y2="17.73"/><line class="cls-3" x1="71.75" y1="32.13" x2="144.25" y2="32.13"/><line class="cls-3" x1="71.75" y1="46.53" x2="144.25" y2="46.53"/><line class="cls-3" x1="71.75" y1="60.93" x2="144.25" y2="60.93"/><line class="cls-3" x1="71.75" y1="10.53" x2="144.25" y2="10.53"/><line class="cls-3" x1="71.75" y1="24.93" x2="144.25" y2="24.93"/><line class="cls-3" x1="71.75" y1="39.33" x2="144.25" y2="39.33"/><line class="cls-3" x1="71.75" y1="53.73" x2="144.25" y2="53.73"/><line class="cls-3" x1="71.75" y1="68.13" x2="144.25" y2="68.13"/></g><rect class="cls-4" width="72" height="72"/><g class="cls-2"><line class="cls-3" x1="-0.25" y1="3.33" x2="72.25" y2="3.33"/><line class="cls-3" x1="-0.25" y1="17.73" x2="72.25" y2="17.73"/><line class="cls-3" x1="-0.25" y1="32.13" x2="72.25" y2="32.13"/><line class="cls-3" x1="-0.25" y1="46.53" x2="72.25" y2="46.53"/><line class="cls-3" x1="-0.25" y1="60.93" x2="72.25" y2="60.93"/><line class="cls-3" x1="-0.25" y1="10.53" x2="72.25" y2="10.53"/><line class="cls-3" x1="-0.25" y1="24.93" x2="72.25" y2="24.93"/><line class="cls-3" x1="-0.25" y1="39.33" x2="72.25" y2="39.33"/><line class="cls-3" x1="-0.25" y1="53.73" x2="72.25" y2="53.73"/><line class="cls-3" x1="-0.25" y1="68.13" x2="72.25" y2="68.13"/><line class="cls-3" x1="-72.25" y1="3.33" x2="0.25" y2="3.33"/><line class="cls-3" x1="-72.25" y1="17.73" x2="0.25" y2="17.73"/><line class="cls-3" x1="-72.25" y1="32.13" x2="0.25" y2="32.13"/><line class="cls-3" x1="-72.25" y1="46.53" x2="0.25" y2="46.53"/><line class="cls-3" x1="-72.25" y1="60.93" x2="0.25" y2="60.93"/><line class="cls-3" x1="-72.25" y1="10.53" x2="0.25" y2="10.53"/><line class="cls-3" x1="-72.25" y1="24.93" x2="0.25" y2="24.93"/><line class="cls-3" x1="-72.25" y1="39.33" x2="0.25" y2="39.33"/><line class="cls-3" x1="-72.25" y1="53.73" x2="0.25" y2="53.73"/><line class="cls-3" x1="-72.25" y1="68.13" x2="0.25" y2="68.13"/></g></pattern><pattern id="Unnamed_Pattern_1007-43" data-name="Unnamed Pattern 1007" width="72" height="72" patternTransform="matrix(-0.15, 0.24, 0.24, 0.15, -1952.22, -903.82)" patternUnits="userSpaceOnUse" viewBox="0 0 72 72"><rect class="cls-1" width="72" height="72"/><g class="cls-2"><line class="cls-3" x1="71.75" y1="3.33" x2="144.25" y2="3.33"/><line class="cls-3" x1="71.75" y1="17.73" x2="144.25" y2="17.73"/><line class="cls-3" x1="71.75" y1="32.13" x2="144.25" y2="32.13"/><line class="cls-3" x1="71.75" y1="46.53" x2="144.25" y2="46.53"/><line class="cls-3" x1="71.75" y1="60.93" x2="144.25" y2="60.93"/><line class="cls-3" x1="71.75" y1="10.53" x2="144.25" y2="10.53"/><line class="cls-3" x1="71.75" y1="24.93" x2="144.25" y2="24.93"/><line class="cls-3" x1="71.75" y1="39.33" x2="144.25" y2="39.33"/><line class="cls-3" x1="71.75" y1="53.73" x2="144.25" y2="53.73"/><line class="cls-3" x1="71.75" y1="68.13" x2="144.25" y2="68.13"/></g><rect class="cls-4" width="72" height="72"/><g class="cls-2"><line class="cls-3" x1="-0.25" y1="3.33" x2="72.25" y2="3.33"/><line class="cls-3" x1="-0.25" y1="17.73" x2="72.25" y2="17.73"/><line class="cls-3" x1="-0.25" y1="32.13" x2="72.25" y2="32.13"/><line class="cls-3" x1="-0.25" y1="46.53" x2="72.25" y2="46.53"/><line class="cls-3" x1="-0.25" y1="60.93" x2="72.25" y2="60.93"/><line class="cls-3" x1="-0.25" y1="10.53" x2="72.25" y2="10.53"/><line class="cls-3" x1="-0.25" y1="24.93" x2="72.25" y2="24.93"/><line class="cls-3" x1="-0.25" y1="39.33" x2="72.25" y2="39.33"/><line class="cls-3" x1="-0.25" y1="53.73" x2="72.25" y2="53.73"/><line class="cls-3" x1="-0.25" y1="68.13" x2="72.25" y2="68.13"/><line class="cls-3" x1="-72.25" y1="3.33" x2="0.25" y2="3.33"/><line class="cls-3" x1="-72.25" y1="17.73" x2="0.25" y2="17.73"/><line class="cls-3" x1="-72.25" y1="32.13" x2="0.25" y2="32.13"/><line class="cls-3" x1="-72.25" y1="46.53" x2="0.25" y2="46.53"/><line class="cls-3" x1="-72.25" y1="60.93" x2="0.25" y2="60.93"/><line class="cls-3" x1="-72.25" y1="10.53" x2="0.25" y2="10.53"/><line class="cls-3" x1="-72.25" y1="24.93" x2="0.25" y2="24.93"/><line class="cls-3" x1="-72.25" y1="39.33" x2="0.25" y2="39.33"/><line class="cls-3" x1="-72.25" y1="53.73" x2="0.25" y2="53.73"/><line class="cls-3" x1="-72.25" y1="68.13" x2="0.25" y2="68.13"/></g></pattern><pattern id="Unnamed_Pattern_1007-53" data-name="Unnamed Pattern 1007" width="72" height="72" patternTransform="matrix(-0.15, 0.24, 0.24, 0.15, -1948.79, -902.42)" patternUnits="userSpaceOnUse" viewBox="0 0 72 72"><rect class="cls-1" width="72" height="72"/><g class="cls-2"><line class="cls-3" x1="71.75" y1="3.33" x2="144.25" y2="3.33"/><line class="cls-3" x1="71.75" y1="17.73" x2="144.25" y2="17.73"/><line class="cls-3" x1="71.75" y1="32.13" x2="144.25" y2="32.13"/><line class="cls-3" x1="71.75" y1="46.53" x2="144.25" y2="46.53"/><line class="cls-3" x1="71.75" y1="60.93" x2="144.25" y2="60.93"/><line class="cls-3" x1="71.75" y1="10.53" x2="144.25" y2="10.53"/><line class="cls-3" x1="71.75" y1="24.93" x2="144.25" y2="24.93"/><line class="cls-3" x1="71.75" y1="39.33" x2="144.25" y2="39.33"/><line class="cls-3" x1="71.75" y1="53.73" x2="144.25" y2="53.73"/><line class="cls-3" x1="71.75" y1="68.13" x2="144.25" y2="68.13"/></g><rect class="cls-4" width="72" height="72"/><g class="cls-2"><line class="cls-3" x1="-0.25" y1="3.33" x2="72.25" y2="3.33"/><line class="cls-3" x1="-0.25" y1="17.73" x2="72.25" y2="17.73"/><line class="cls-3" x1="-0.25" y1="32.13" x2="72.25" y2="32.13"/><line class="cls-3" x1="-0.25" y1="46.53" x2="72.25" y2="46.53"/><line class="cls-3" x1="-0.25" y1="60.93" x2="72.25" y2="60.93"/><line class="cls-3" x1="-0.25" y1="10.53" x2="72.25" y2="10.53"/><line class="cls-3" x1="-0.25" y1="24.93" x2="72.25" y2="24.93"/><line class="cls-3" x1="-0.25" y1="39.33" x2="72.25" y2="39.33"/><line class="cls-3" x1="-0.25" y1="53.73" x2="72.25" y2="53.73"/><line class="cls-3" x1="-0.25" y1="68.13" x2="72.25" y2="68.13"/><line class="cls-3" x1="-72.25" y1="3.33" x2="0.25" y2="3.33"/><line class="cls-3" x1="-72.25" y1="17.73" x2="0.25" y2="17.73"/><line class="cls-3" x1="-72.25" y1="32.13" x2="0.25" y2="32.13"/><line class="cls-3" x1="-72.25" y1="46.53" x2="0.25" y2="46.53"/><line class="cls-3" x1="-72.25" y1="60.93" x2="0.25" y2="60.93"/><line class="cls-3" x1="-72.25" y1="10.53" x2="0.25" y2="10.53"/><line class="cls-3" x1="-72.25" y1="24.93" x2="0.25" y2="24.93"/><line class="cls-3" x1="-72.25" y1="39.33" x2="0.25" y2="39.33"/><line class="cls-3" x1="-72.25" y1="53.73" x2="0.25" y2="53.73"/><line class="cls-3" x1="-72.25" y1="68.13" x2="0.25" y2="68.13"/></g></pattern><pattern id="Unnamed_Pattern_994" data-name="Unnamed Pattern 994" width="72" height="72" patternTransform="matrix(-0.15, 0.24, 0.24, 0.15, -1952.99, -905.68)" patternUnits="userSpaceOnUse" viewBox="0 0 72 72"><rect class="cls-1" width="72" height="72"/><g class="cls-2"><line class="cls-3" x1="71.75" y1="3.33" x2="144.25" y2="3.33"/><line class="cls-3" x1="71.75" y1="17.73" x2="144.25" y2="17.73"/><line class="cls-3" x1="71.75" y1="32.13" x2="144.25" y2="32.13"/><line class="cls-3" x1="71.75" y1="46.53" x2="144.25" y2="46.53"/><line class="cls-3" x1="71.75" y1="60.93" x2="144.25" y2="60.93"/><line class="cls-3" x1="71.75" y1="10.53" x2="144.25" y2="10.53"/><line class="cls-3" x1="71.75" y1="24.93" x2="144.25" y2="24.93"/><line class="cls-3" x1="71.75" y1="39.33" x2="144.25" y2="39.33"/><line class="cls-3" x1="71.75" y1="53.73" x2="144.25" y2="53.73"/><line class="cls-3" x1="71.75" y1="68.13" x2="144.25" y2="68.13"/><rect class="cls-4" width="72" height="72"/><line class="cls-3" x1="-0.25" y1="3.33" x2="72.25" y2="3.33"/><line class="cls-3" x1="-0.25" y1="17.73" x2="72.25" y2="17.73"/><line class="cls-3" x1="-0.25" y1="32.13" x2="72.25" y2="32.13"/><line class="cls-3" x1="-0.25" y1="46.53" x2="72.25" y2="46.53"/><line class="cls-3" x1="-0.25" y1="60.93" x2="72.25" y2="60.93"/><line class="cls-3" x1="-0.25" y1="10.53" x2="72.25" y2="10.53"/><line class="cls-3" x1="-0.25" y1="24.93" x2="72.25" y2="24.93"/><line class="cls-3" x1="-0.25" y1="39.33" x2="72.25" y2="39.33"/><line class="cls-3" x1="-0.25" y1="53.73" x2="72.25" y2="53.73"/><line class="cls-3" x1="-0.25" y1="68.13" x2="72.25" y2="68.13"/><line class="cls-3" x1="-72.25" y1="3.33" x2="0.25" y2="3.33"/><line class="cls-3" x1="-72.25" y1="17.73" x2="0.25" y2="17.73"/><line class="cls-3" x1="-72.25" y1="32.13" x2="0.25" y2="32.13"/><line class="cls-3" x1="-72.25" y1="46.53" x2="0.25" y2="46.53"/><line class="cls-3" x1="-72.25" y1="60.93" x2="0.25" y2="60.93"/><line class="cls-3" x1="-72.25" y1="10.53" x2="0.25" y2="10.53"/><line class="cls-3" x1="-72.25" y1="24.93" x2="0.25" y2="24.93"/><line class="cls-3" x1="-72.25" y1="39.33" x2="0.25" y2="39.33"/><line class="cls-3" x1="-72.25" y1="53.73" x2="0.25" y2="53.73"/><line class="cls-3" x1="-72.25" y1="68.13" x2="0.25" y2="68.13"/></g></pattern><clipPath id="clip-path-28"><rect class="cls-1" x="110.69" y="-28.44" width="576.74" height="341.62"/></clipPath><clipPath id="clip-path-29"><rect class="cls-1" x="110.69" y="-28.45" width="576.74" height="341.62"/></clipPath><pattern id="Unnamed_Pattern_1007-149" data-name="Unnamed Pattern 1007" width="72" height="72" patternTransform="matrix(-0.16, 0.23, 0.23, 0.16, -1828.98, -1123.54)" patternUnits="userSpaceOnUse" viewBox="0 0 72 72"><rect class="cls-1" width="72" height="72"/><g class="cls-2"><line class="cls-3" x1="71.75" y1="3.33" x2="144.25" y2="3.33"/><line class="cls-3" x1="71.75" y1="17.73" x2="144.25" y2="17.73"/><line class="cls-3" x1="71.75" y1="32.13" x2="144.25" y2="32.13"/><line class="cls-3" x1="71.75" y1="46.53" x2="144.25" y2="46.53"/><line class="cls-3" x1="71.75" y1="60.93" x2="144.25" y2="60.93"/><line class="cls-3" x1="71.75" y1="10.53" x2="144.25" y2="10.53"/><line class="cls-3" x1="71.75" y1="24.93" x2="144.25" y2="24.93"/><line class="cls-3" x1="71.75" y1="39.33" x2="144.25" y2="39.33"/><line class="cls-3" x1="71.75" y1="53.73" x2="144.25" y2="53.73"/><line class="cls-3" x1="71.75" y1="68.13" x2="144.25" y2="68.13"/></g><rect class="cls-4" width="72" height="72"/><g class="cls-2"><line class="cls-3" x1="-0.25" y1="3.33" x2="72.25" y2="3.33"/><line class="cls-3" x1="-0.25" y1="17.73" x2="72.25" y2="17.73"/><line class="cls-3" x1="-0.25" y1="32.13" x2="72.25" y2="32.13"/><line class="cls-3" x1="-0.25" y1="46.53" x2="72.25" y2="46.53"/><line class="cls-3" x1="-0.25" y1="60.93" x2="72.25" y2="60.93"/><line class="cls-3" x1="-0.25" y1="10.53" x2="72.25" y2="10.53"/><line class="cls-3" x1="-0.25" y1="24.93" x2="72.25" y2="24.93"/><line class="cls-3" x1="-0.25" y1="39.33" x2="72.25" y2="39.33"/><line class="cls-3" x1="-0.25" y1="53.73" x2="72.25" y2="53.73"/><line class="cls-3" x1="-0.25" y1="68.13" x2="72.25" y2="68.13"/><line class="cls-3" x1="-72.25" y1="3.33" x2="0.25" y2="3.33"/><line class="cls-3" x1="-72.25" y1="17.73" x2="0.25" y2="17.73"/><line class="cls-3" x1="-72.25" y1="32.13" x2="0.25" y2="32.13"/><line class="cls-3" x1="-72.25" y1="46.53" x2="0.25" y2="46.53"/><line class="cls-3" x1="-72.25" y1="60.93" x2="0.25" y2="60.93"/><line class="cls-3" x1="-72.25" y1="10.53" x2="0.25" y2="10.53"/><line class="cls-3" x1="-72.25" y1="24.93" x2="0.25" y2="24.93"/><line class="cls-3" x1="-72.25" y1="39.33" x2="0.25" y2="39.33"/><line class="cls-3" x1="-72.25" y1="53.73" x2="0.25" y2="53.73"/><line class="cls-3" x1="-72.25" y1="68.13" x2="0.25" y2="68.13"/></g></pattern><pattern id="Unnamed_Pattern_1009" data-name="Unnamed Pattern 1009" width="72" height="72" patternTransform="matrix(-0.15, 0.24, 0.24, 0.15, -1949.42, -897.32)" patternUnits="userSpaceOnUse" viewBox="0 0 72 72"><rect class="cls-1" width="72" height="72"/><g class="cls-2"><line class="cls-3" x1="71.75" y1="3.33" x2="144.25" y2="3.33"/><line class="cls-3" x1="71.75" y1="17.73" x2="144.25" y2="17.73"/><line class="cls-3" x1="71.75" y1="32.13" x2="144.25" y2="32.13"/><line class="cls-3" x1="71.75" y1="46.53" x2="144.25" y2="46.53"/><line class="cls-3" x1="71.75" y1="60.93" x2="144.25" y2="60.93"/><line class="cls-3" x1="71.75" y1="10.53" x2="144.25" y2="10.53"/><line class="cls-3" x1="71.75" y1="24.93" x2="144.25" y2="24.93"/><line class="cls-3" x1="71.75" y1="39.33" x2="144.25" y2="39.33"/><line class="cls-3" x1="71.75" y1="53.73" x2="144.25" y2="53.73"/><line class="cls-3" x1="71.75" y1="68.13" x2="144.25" y2="68.13"/></g><rect class="cls-5" width="72" height="72"/><g class="cls-2"><line class="cls-3" x1="-0.25" y1="3.33" x2="72.25" y2="3.33"/><line class="cls-3" x1="-0.25" y1="17.73" x2="72.25" y2="17.73"/><line class="cls-3" x1="-0.25" y1="32.13" x2="72.25" y2="32.13"/><line class="cls-3" x1="-0.25" y1="46.53" x2="72.25" y2="46.53"/><line class="cls-3" x1="-0.25" y1="60.93" x2="72.25" y2="60.93"/><line class="cls-3" x1="-0.25" y1="10.53" x2="72.25" y2="10.53"/><line class="cls-3" x1="-0.25" y1="24.93" x2="72.25" y2="24.93"/><line class="cls-3" x1="-0.25" y1="39.33" x2="72.25" y2="39.33"/><line class="cls-3" x1="-0.25" y1="53.73" x2="72.25" y2="53.73"/><line class="cls-3" x1="-0.25" y1="68.13" x2="72.25" y2="68.13"/><line class="cls-3" x1="-72.25" y1="3.33" x2="0.25" y2="3.33"/><line class="cls-3" x1="-72.25" y1="17.73" x2="0.25" y2="17.73"/><line class="cls-3" x1="-72.25" y1="32.13" x2="0.25" y2="32.13"/><line class="cls-3" x1="-72.25" y1="46.53" x2="0.25" y2="46.53"/><line class="cls-3" x1="-72.25" y1="60.93" x2="0.25" y2="60.93"/><line class="cls-3" x1="-72.25" y1="10.53" x2="0.25" y2="10.53"/><line class="cls-3" x1="-72.25" y1="24.93" x2="0.25" y2="24.93"/><line class="cls-3" x1="-72.25" y1="39.33" x2="0.25" y2="39.33"/><line class="cls-3" x1="-72.25" y1="53.73" x2="0.25" y2="53.73"/><line class="cls-3" x1="-72.25" y1="68.13" x2="0.25" y2="68.13"/></g></pattern><clipPath id="clip-path-34"><rect class="cls-1" x="540.4" y="359.58" width="10.81" height="9.05"/></clipPath></defs><title>mendham</title><g class="cls-6"><g id="Layer_1" data-name="Layer 1"><g class="cls-7"><g class="cls-8"><rect class="cls-4" x="1.86" y="2.09" width="750" height="400"/><g class="cls-9"><rect class="cls-10" x="-82.91" y="-105.91" width="919.56" height="616"/><path class="cls-4" d="M-57.84,282.82L56,258.32s-16.92-84.76-18.49-90.18-12.51-46.9-13-48.65-1.66-6.12,2.89-7.35,6.21,6.3,6.83,9.19,14.79,54.43,17.41,69.21S65,256.45,65,256.45s60.23-13.3,71.87-15.92,88-17.73,116.2-25.84c24.67-7.35,66.15-21.47,66.15-21.47s-25-44.39-26.48-47-38-67.67-43.22-76.53S196.73-24.54,192.18-32c-0.58-2.22-2.62.35-4.2-.06-5.28-8.26-10.85-19.49-11.19-19.49-0.13,0-3-2-7.36-4.66-3.09,1.11-46.26,15.75-46.26,15.75-5.72,1.75-88.67,24.56-89.25,24.68S28.26-1.56,28.26-1.56L20.33,5.27,7.91,6.9-0.73,3.58-8.37-10.13s3.71-13.56,4-14c0,0,8.73-6.78,10-7.7,3.56-.81,17.5-4.38,17.5-4.38,2-.41,7.29-1.81,9-2.16s43-10.3,47.83-11.41,21.83-5.25,25.79-6.82S141-67,152-71.73c0,0,6.15-6.62,6.07-7.06s-4-10.32-4-10.32H-57.84V282.82Z"/><path class="cls-4" d="M-57.84,307.17l110.95-23S92.78,456.36,99,493.29c-17.67,0-139.3,1.05-139.3,1.05S-57,406-57.84,403.51V307.17Z"/><path class="cls-4" d="M68.75,280.84S140,266.78,153.51,264c13.65-3.32,92.63-17.38,133.5-29.52,25.59-7,39.07-10,39.07-10s14.35,27.82,17,32.77c2.28,4.9,22,42.09,26.6,50.49S423.59,410,423.59,410l43.87,83.3H115.65Z"/><path class="cls-4" d="M346.68,208.21s17.73,32.43,20.37,37.91c2.57,6.6,17.17,32.53,26.15,48.86,6.56,12.6,28.93,54.22,30.33,57.2s28.77,54.86,31.66,60.2S480.7,461.9,480.7,461.9l16,31.38H811.56V-2.23s-19.31,12.74-23.86,15.54c-5.42,2.45-55.94,30.8-84.47,43.57s-138,60.84-151.08,66.79-61.37,28.18-71.87,32.2-93.54,37.28-101.59,40.43-32,11.9-32,11.9"/><path class="cls-4" d="M339.53,184.24s55.29-21.52,61.24-23.8,89-34.65,102.15-41.83c6.47-2.45,139-60.77,148.25-65.31S713.56,25.86,713.56,25,676.29-23,663.22-41.69c-8-9.8-35.52-47.78-35.52-47.78H184.83L254.16,33Z"/><path class="cls-4" d="M732.23,16.5s42.26-23.8,49.7-27.79C789-15.09,811.56-30,811.56-30V-89.11H652s37.63,49.37,49.35,65.45c11.52,15.8,30.92,40.16,30.92,40.16"/></g><polygon class="cls-11" points="408.45 184.59 439.36 242.78 513.81 211.86 481.4 155.23 408.45 184.59"/><polygon class="cls-11" points="471.04 266.81 567.79 226.59 552.2 195.92 456.21 236.12 471.04 266.81"/><g class="cls-9"><path class="cls-12" d="M373.49,171.34l-24.13-59.88s3.28-9.57,4.74-10.43,20.6-9.56,20.6-9.56l29,68.08Z"/></g><polygon class="cls-13" points="413.88 333.6 449.79 402.09 564.27 402.09 575.75 396.77 578.69 402.09 714.94 402.09 751.86 376.05 751.86 182.71 413.88 333.6"/><polygon class="cls-13" points="128.8 268.83 147.03 346.29 85.96 358.89 95.5 402.09 148.12 402.09 159.78 399.36 160.38 402.09 277.94 402.09 241.53 246.07 128.8 268.83"/><polygon class="cls-13" points="413.88 333.6 432.33 368.78 504.96 336.49 487.11 300.44 413.88 333.6"/><polygon class="cls-13" points="564.27 402.09 578.69 402.09 575.75 396.77 564.27 402.09"/><polygon class="cls-13" points="714.94 402.09 751.86 402.09 751.86 376.05 714.94 402.09"/><polygon class="cls-13" points="333.52 2.09 372.43 87.98 405.75 72.6 375.24 2.09 333.52 2.09"/><polygon class="cls-13" points="458.9 2.09 480.93 45.75 576.62 2.09 458.9 2.09"/><polygon class="cls-13" points="241.53 246.07 257.48 313.65 282.03 308.31 277.93 289.7 304.04 282.57 301.13 269.67 315.73 264.17 315.73 261.35 339.43 250.43 326.07 224.49 241.53 246.07"/><polygon class="cls-13" points="375.25 2.09 407.67 77.02 426.8 66.75 457.37 138.62 514.3 114.12 458.83 2.09 375.25 2.09"/><polygon class="cls-13" points="583.87 2.09 615.8 69.33 634.46 61.15 606.46 2.09 583.87 2.09"/><polyline class="cls-14" points="3.77 45.05 22.2 265.32 56.03 258.32 64.9 256.45"/><g class="cls-9"><polyline class="cls-14" points="-27.97 276.29 -46.72 68.62 6.78 81.11 -47.1 68.62 -57.84 68.62"/><polyline class="cls-14" points="61.63 -23.78 73.94 37.59 133.79 31.29 223.6 23.57"/><polyline class="cls-14" points="187.16 -33.35 174.91 -26.46 111.39 -1.79 126.64 32.04 119.36 15.9 207.18 -5.52"/><line class="cls-14" x1="91.73" y1="-31.71" x2="105.48" y2="34.27"/></g><line class="cls-14" x1="44.83" y1="40.85" x2="73.94" y2="37.59"/><polyline class="cls-14" points="63.24 38.79 72.01 103.21 162.14 84.31 181.74 121.94 200.11 117.04 175.79 71.01 157.41 76.26 133.79 31.29"/><line class="cls-14" x1="175.79" y1="71.01" x2="240.23" y2="53.02"/><polyline class="cls-14" points="181.74 121.94 75.86 148.36 81.5 252.27"/><line class="cls-14" x1="48.21" y1="172.45" x2="76.91" y2="167.61"/><g class="cls-9"><polyline class="cls-14" points="319 192.52 318.11 190.94 191.6 -33.11 188.1 -31.71 187.16 -33.35 176.66 -51.78 169.43 -56.21 123 -40.35 91.73 -31.71 61.63 -23.78 33.63 -15.85 28.27 -1.61 20.33 5.27 7.96 7.02 -0.67 3.52 3.77 45.05 44.83 40.85 33.63 -15.85"/></g><polyline class="cls-14" points="121.25 137.03 142.37 239.36 64.9 256.45 81.5 252.28"/><polyline class="cls-14" points="142.37 239.36 240.54 218.36 319 193.69 319 192.52"/><line class="cls-14" x1="142.36" y1="131.76" x2="163.75" y2="234.79"/><line class="cls-14" x1="192.04" y1="228.74" x2="185.76" y2="120.86"/><polyline class="cls-14" points="240.54 218.36 238.62 184.24 233.19 184.24 228.58 119.48 214.29 127.19 212.54 113.89 209.56 104.26 257.05 82.8"/><polyline class="cls-14" points="260.02 212.23 248.59 173.56 232.64 176.56"/><line class="cls-14" x1="175.79" y1="110.51" x2="39.29" y2="139.79"/><polyline class="cls-14" points="72.02 103.21 29.9 111.61 36.9 139.67 47.62 172.45"/><g class="cls-9"><polyline class="cls-14" points="3.77 45.05 6.78 81.11 22.2 265.32 -57.84 282.82 -53.76 281.93 -57.84 242.22"/><polyline class="cls-14" points="184.6 -89.11 339.53 184.59 457.37 138.62 514.3 114.12 550.7 98.49 595.03 78.42 634.47 61.15 713.33 25.22 627.47 -89.11"/><polyline class="cls-14" points="480.93 45.75 454.8 -6.05 402.76 -89.11"/><polyline class="cls-14" points="381.76 -89.11 347.7 -61.58 407.67 77.02 426.8 66.75 457.37 138.62"/></g><polyline class="cls-14" points="427.71 150.25 420.44 126.93 422.07 120.4 407.66 77.02"/><g class="cls-9"><polyline class="cls-14" points="405.75 72.6 372.43 87.98 297.06 -78.38 314.56 -89.11"/><line class="cls-14" x1="251.42" y1="28.93" x2="324.73" y2="-17.31"/></g><line class="cls-14" x1="271.24" y1="63.94" x2="341.45" y2="19.6"/><line class="cls-14" x1="290.7" y1="98.32" x2="357.91" y2="55.92"/><polyline class="cls-14" points="324.3 77.02 339.3 104.32 306.34 124.58"/><line class="cls-14" x1="495.95" y1="38.9" x2="527.98" y2="108.24"/><line class="cls-14" x1="550.7" y1="98.49" x2="518.83" y2="28.46"/><line class="cls-14" x1="540.59" y1="18.53" x2="572.18" y2="88.76"/><line class="cls-14" x1="595.51" y1="78.21" x2="563.62" y2="8.02"/><g class="cls-9"><polyline class="cls-14" points="615.8 69.33 582.58 -0.63 480.93 45.75 514.3 114.12"/><polyline class="cls-14" points="634.47 61.15 601.15 -9.11 611.83 -13.98 595.03 -39.41"/><path class="cls-14" d="M652-89.11S731.59,16.5,732.38,16.5s54.25-30.62,54.25-30.62L811.56-30"/><line class="cls-14" x1="753.65" y1="4.68" x2="717.37" y2="-72.37"/><polyline class="cls-14" points="787.5 13.39 743.14 36.97 807.86 156.94"/></g><polyline class="cls-14" points="743.14 36.97 718.99 49.92 682.94 65.67 574.26 114.12 638.59 232.96"/><line class="cls-14" x1="659.63" y1="223.6" x2="597.98" y2="103.55"/><line class="cls-14" x1="605.61" y1="173.56" x2="628.43" y2="162.84"/><line class="cls-14" x1="680.12" y1="214.49" x2="617.81" y2="94.71"/><line class="cls-14" x1="662.17" y1="74.93" x2="726.5" y2="193.87"/><line class="cls-14" x1="748.1" y1="184.24" x2="682.94" y2="65.67"/><g class="cls-9"><polyline class="cls-14" points="811.57 156.06 626.02 238.54 593.43 175.84 590.45 177.24 560.73 119.86 524.22 136.28 481.95 155.01 408.45 184.59 346.68 207.95 378.7 267.97 413.88 333.6 472.15 444.72 496.65 493.29"/><polyline class="cls-14" points="472.15 444.72 575.75 396.77 616.88 471.24 811.56 333.96"/></g><polyline class="cls-14" points="432.33 368.78 504.96 336.4 486.68 300.7 413.88 333.6"/><line class="cls-14" x1="486.68" y1="300.7" x2="626.02" y2="238.54"/><polyline class="cls-14" points="586.8 256.04 524.22 136.29 554.82 194.83 590.45 177.24"/><line class="cls-14" x1="554.82" y1="194.83" x2="378.7" y2="267.97"/><polyline class="cls-14" points="368.93 249.1 408.45 231.54 422.56 249.76"/><polyline class="cls-14" points="414.34 238.83 407.93 230.7 388.21 192.24"/><line class="cls-14" x1="408.45" y1="184.59" x2="439.36" y2="242.78"/><line class="cls-14" x1="513.81" y1="211.86" x2="481.4" y2="155.23"/><line class="cls-14" x1="496.9" y1="148.39" x2="529.34" y2="205.41"/><polyline class="cls-14" points="552.2 195.92 567.79 226.59 395.02 298.41"/><line class="cls-14" x1="456.21" y1="235.78" x2="471.04" y2="266.81"/><line class="cls-14" x1="560.8" y1="229.49" x2="576.49" y2="260.64"/><g class="cls-9"><polyline class="cls-14" points="467.46 493.29 334.98 241.99 326 224.49 241.53 246.07 68.75 280.95 115.65 493.29"/><line class="cls-14" x1="175.5" y1="468.67" x2="159.78" y2="399.91"/><line class="cls-14" x1="98.09" y1="413.78" x2="159.77" y2="399.91"/></g><line class="cls-14" x1="92.99" y1="276.06" x2="111.8" y2="353.64"/><line class="cls-14" x1="85.96" y1="358.89" x2="147.03" y2="345.94"/><line class="cls-14" x1="147.03" y1="345.94" x2="128.8" y2="268.83"/><g class="cls-9"><line class="cls-14" x1="241.53" y1="246.07" x2="290.18" y2="454.55"/><polyline class="cls-14" points="402.19 369.49 322.38 401.47 328.56 429.24"/></g><polyline class="cls-14" points="274.11 385.68 332.18 371.37 328.56 356.44 387.55 341.7"/><line class="cls-14" x1="374.36" y1="316.68" x2="264.14" y2="342.97"/><polyline class="cls-14" points="257.48 314.42 334.28 295.3 356.77 283.31"/><polyline class="cls-14" points="346.68 264.17 320.63 278.04 277.93 289.7 282.03 308.31"/><line class="cls-14" x1="304.04" y1="282.57" x2="301.13" y2="269.67"/><polyline class="cls-14" points="301.13 269.67 315.73 264.17 315.73 261.35 339.43 250.43"/><polygon class="cls-4" points="1.86 294.96 1.86 388.73 73.59 374.29 53.12 284.16 1.86 294.96"/><g class="cls-9"><polygon class="cls-14" points="-19.16 299.39 1.49 388.81 73.59 374.29 53.12 284.16 -19.16 299.39"/></g><polyline class="cls-14" points="71.09 363.29 34.22 370.96 15.03 292.18"/><g class="cls-9"><polyline class="cls-14" points="82.64 416.03 10.85 430.72 1.49 388.81 -55.08 401.19"/><polyline class="cls-14" points="-57.84 386.07 -38.82 493.29 21.18 478.41 10.85 430.72"/><polyline class="cls-14" points="21.18 478.41 23.42 493.29 22.49 487.12 56.38 478.94 94.5 470.8 73.59 374.29"/></g><polyline class="cls-14" points="200.12 117.03 209.17 114.74 216.68 223.46"/><line class="cls-14" x1="403.71" y1="159.55" x2="374.7" y2="91.47"/><line class="cls-14" x1="373.49" y1="171.34" x2="349.38" y2="111.61"/><g class="cls-9"><g class="cls-7"><g class="cls-15"><polygon class="cls-16" points="15.61 20.03 16.66 34.09 35.85 32.74 34.86 18.57 15.61 20.03"/><polygon class="cls-17" points="15.61 20.03 16.66 34.09 35.85 32.74 34.86 18.57 15.61 20.03"/><polygon class="cls-16" points="47.81 -9.26 52.18 8.01 68.51 3.93 64.02 -13.4 47.81 -9.26"/><polygon class="cls-17" points="47.81 -9.26 52.18 8.01 68.51 3.93 64.02 -13.4 47.81 -9.26"/><polygon class="cls-16" points="129.24 18.25 148.66 13 152.16 26.82 132.74 31.46 129.24 18.25"/><polygon class="cls-17" points="129.24 18.25 148.66 13 152.16 26.82 132.74 31.46 129.24 18.25"/><polygon class="cls-16" points="190.84 8.01 204.66 3.02 208.69 14.4 194.78 18.86 190.84 8.01"/><polygon class="cls-17" points="190.84 8.01 204.66 3.02 208.69 14.4 194.78 18.86 190.84 8.01"/><polygon class="cls-16" points="205.1 34.63 218.23 26.45 227.5 42.33 214.29 50.12 205.1 34.63"/><polygon class="cls-17" points="205.1 34.63 218.23 26.45 227.5 42.33 214.29 50.12 205.1 34.63"/><polygon class="cls-16" points="179.99 30.5 191.8 29.71 192.5 39.69 180.6 40.3 179.99 30.5"/><polygon class="cls-17" points="179.99 30.5 191.8 29.71 192.5 39.69 180.6 40.3 179.99 30.5"/><polygon class="cls-16" points="226.98 70.83 242.2 62.26 251.83 80.02 236.6 88.16 226.98 70.83"/><polygon class="cls-17" points="226.98 70.83 242.2 62.26 251.83 80.02 236.6 88.16 226.98 70.83"/><polygon class="cls-16" points="36.37 121.88 37.07 134.36 49.73 133.6 49.5 130.28 53.29 130.04 52.71 120.83 36.37 121.88"/><polygon class="cls-17" points="36.37 121.88 37.07 134.36 49.73 133.6 49.5 130.28 53.29 130.04 52.71 120.83 36.37 121.88"/><polygon class="cls-16" points="70.15 113.53 71.78 120.53 85.9 117.03 84.03 109.98 70.15 113.53"/><polygon class="cls-17" points="70.15 113.53 71.78 120.53 85.9 117.03 84.03 109.98 70.15 113.53"/><polygon class="cls-16" points="41.27 141.53 42.38 152.15 52.65 150.87 52.99 154.25 63.26 152.85 61.22 138.85 41.27 141.53"/><polygon class="cls-17" points="41.27 141.53 42.38 152.15 52.65 150.87 52.99 154.25 63.26 152.85 61.22 138.85 41.27 141.53"/><polygon class="cls-16" points="112.44 161.57 122.59 159.12 127.31 178.99 117.52 181.17 112.44 161.57"/><polygon class="cls-17" points="112.44 161.57 122.59 159.12 127.31 178.99 117.52 181.17 112.44 161.57"/><polygon class="cls-16" points="82.17 189.92 105.53 184.85 107.45 193.34 84.18 198.06 82.17 189.92"/><polygon class="cls-17" points="82.17 189.92 105.53 184.85 107.45 193.34 84.18 198.06 82.17 189.92"/><polygon class="cls-16" points="140.79 195.17 155.23 191.85 161.62 221.51 144.2 225.45 139.39 205.85 142.8 205.15 140.79 195.17"/><polygon class="cls-17" points="140.79 195.17 155.23 191.85 161.62 221.51 144.2 225.45 139.39 205.85 142.8 205.15 140.79 195.17"/><polygon class="cls-16" points="59.24 215.65 73.15 211.97 79.98 238.05 65.8 241.55 59.24 215.65"/><polygon class="cls-17" points="59.24 215.65 73.15 211.97 79.98 238.05 65.8 241.55 59.24 215.65"/><polygon class="cls-16" points="28.27 231.84 40.34 228.69 45.59 249.34 33.08 252.14 28.27 231.84"/><polygon class="cls-17" points="28.27 231.84 40.34 228.69 45.59 249.34 33.08 252.14 28.27 231.84"/><polygon class="cls-16" points="-4.9 241.55 7.44 238.92 10.33 253.89 -1.22 256.07 -0.87 258.35 -11.11 260.1 -13.3 248.11 -3.94 246.45 -4.9 241.55"/><polygon class="cls-17" points="-4.9 241.55 7.44 238.92 10.33 253.89 -1.22 256.07 -0.87 258.35 -11.11 260.1 -13.3 248.11 -3.94 246.45 -4.9 241.55"/><polygon class="cls-16" points="268.6 38.52 274.67 50.89 287.62 44.7 281.43 32.1 268.6 38.52"/><polygon class="cls-17" points="268.6 38.52 274.67 50.89 287.62 44.7 281.43 32.1 268.6 38.52"/><polygon class="cls-16" points="279.8 72.58 287.62 88.92 307.1 79 298.93 63.02 279.8 72.58"/><polygon class="cls-17" points="279.8 72.58 287.62 88.92 307.1 79 298.93 63.02 279.8 72.58"/><polygon class="cls-16" points="313.28 59.87 319.46 69.32 330.55 61.39 323.9 51.94 313.28 59.87"/><polygon class="cls-17" points="313.28 59.87 319.46 69.32 330.55 61.39 323.9 51.94 313.28 59.87"/><polygon class="cls-16" points="300.92 106.01 304.76 113.01 323.67 102.63 322.03 99.83 329.85 95.98 326.81 90.96 300.92 106.01"/><polygon class="cls-17" points="300.92 106.01 304.76 113.01 323.67 102.63 322.03 99.83 329.85 95.98 326.81 90.96 300.92 106.01"/><polygon class="cls-16" points="321.45 118.57 325.3 128.02 342.92 120.32 338.83 110.28 321.45 118.57"/><polygon class="cls-17" points="321.45 118.57 325.3 128.02 342.92 120.32 338.83 110.28 321.45 118.57"/><polygon class="cls-16" points="390.95 85.06 375.9 91.99 380.41 101.79 395.63 95.18 390.95 85.06"/><polygon class="cls-17" points="390.95 85.06 375.9 91.99 380.41 101.79 395.63 95.18 390.95 85.06"/><polygon class="cls-16" points="398.49 80.4 404.79 99.59 412.32 96.97 405.84 77.78 398.49 80.4"/><polygon class="cls-17" points="398.49 80.4 404.79 99.59 412.32 96.97 405.84 77.78 398.49 80.4"/><polygon class="cls-16" points="173.75 147.31 175.15 168.78 187.57 168.19 185.88 146.49 173.75 147.31"/><polygon class="cls-17" points="173.75 147.31 175.15 168.78 187.57 168.19 185.88 146.49 173.75 147.31"/><polygon class="cls-16" points="222.75 190.65 224.97 211.07 239.08 209.55 236.75 189.13 222.75 190.65"/><polygon class="cls-17" points="222.75 190.65 224.97 211.07 239.08 209.55 236.75 189.13 222.75 190.65"/><polygon class="cls-16" points="328.83 154.94 334.78 172.7 353.15 166.14 346.59 148.64 328.83 154.94"/><polygon class="cls-17" points="328.83 154.94 334.78 172.7 353.15 166.14 346.59 148.64 328.83 154.94"/><polygon class="cls-16" points="397.92 140.07 404.13 156 425.66 147.6 420.15 134.82 414.72 136.92 413.58 133.77 397.92 140.07"/><polygon class="cls-17" points="397.92 140.07 404.13 156 425.66 147.6 420.15 134.82 414.72 136.92 413.58 133.77 397.92 140.07"/><polygon class="cls-16" points="422.63 119.83 430.5 141.1 448 134.1 442.75 120.62 438.11 122.11 435.31 114.94 422.63 119.83"/><polygon class="cls-17" points="422.63 119.83 430.5 141.1 448 134.1 442.75 120.62 438.11 122.11 435.31 114.94 422.63 119.83"/><polygon class="cls-16" points="452.2 100.85 457.63 114.94 467.51 110.39 469.18 114.94 486.94 107.89 485.28 103.73 491.84 101.46 485.45 85.45 474.17 90.09 471.54 84.05 454.04 91.4 457.19 98.95 452.2 100.85"/><polygon class="cls-17" points="452.2 100.85 457.63 114.94 467.51 110.39 469.18 114.94 486.94 107.89 485.28 103.73 491.84 101.46 485.45 85.45 474.17 90.09 471.54 84.05 454.04 91.4 457.19 98.95 452.2 100.85"/><polygon class="cls-16" points="506.45 92.36 514.33 111 525.79 105.92 517.74 87.37 506.45 92.36"/><polygon class="cls-17" points="506.45 92.36 514.33 111 525.79 105.92 517.74 87.37 506.45 92.36"/><polygon class="cls-16" points="526.49 91.08 531.74 100.05 544.43 92.48 538.92 83.55 526.49 91.08"/><polygon class="cls-17" points="526.49 91.08 531.74 100.05 544.43 92.48 538.92 83.55 526.49 91.08"/><polygon class="cls-16" points="543.64 65.67 547.75 73.81 550.99 71.97 558.34 88.25 567.26 83.79 555.45 59.99 543.64 65.67"/><polygon class="cls-17" points="543.64 65.67 547.75 73.81 550.99 71.97 558.34 88.25 567.26 83.79 555.45 59.99 543.64 65.67"/><polygon class="cls-16" points="569.45 67.53 574.53 79.34 590.19 72.52 585.2 60.71 569.45 67.53"/><polygon class="cls-17" points="569.45 67.53 574.53 79.34 590.19 72.52 585.2 60.71 569.45 67.53"/><polygon class="cls-16" points="594.04 53.51 601.65 68.74 612.5 63.05 609.09 56.84 607.78 57.62 603.27 48.44 594.04 53.51"/><polygon class="cls-17" points="594.04 53.51 601.65 68.74 612.5 63.05 609.09 56.84 607.78 57.62 603.27 48.44 594.04 53.51"/><polygon class="cls-16" points="698.43 67.07 719.08 56.48 734.91 88.69 713.48 99.01 698.43 67.07"/><polygon class="cls-17" points="698.43 67.07 719.08 56.48 734.91 88.69 713.48 99.01 698.43 67.07"/><polygon class="cls-16" points="675.59 74.77 684.43 70.75 698.43 98.4 684.6 104.35 673.14 80.64 677.43 78.62 675.59 74.77"/><polygon class="cls-17" points="675.59 74.77 684.43 70.75 698.43 98.4 684.6 104.35 673.14 80.64 677.43 78.62 675.59 74.77"/><polygon class="cls-16" points="636.91 90.87 653.01 82.82 662.99 102.69 646.37 110.47 636.91 90.87"/><polygon class="cls-17" points="636.91 90.87 653.01 82.82 662.99 102.69 646.37 110.47 636.91 90.87"/><polygon class="cls-16" points="580.57 118.26 593.25 112.14 600.25 126.92 587.65 132.79 580.57 118.26"/><polygon class="cls-17" points="580.57 118.26 593.25 112.14 600.25 126.92 587.65 132.79 580.57 118.26"/><polygon class="cls-16" points="608.07 142.53 615.24 138.76 621.89 151.28 614.54 154.95 608.07 142.53"/><polygon class="cls-17" points="608.07 142.53 615.24 138.76 621.89 151.28 614.54 154.95 608.07 142.53"/><polygon class="cls-16" points="546.53 146.39 566.39 138.3 572.95 152.91 569.01 154.49 573.56 164.55 565.69 167.52 561.31 156.85 552.39 160.87 546.53 146.39"/><polygon class="cls-17" points="546.53 146.39 566.39 138.3 572.95 152.91 569.01 154.49 573.56 164.55 565.69 167.52 561.31 156.85 552.39 160.87 546.53 146.39"/><polygon class="cls-16" points="511.79 153.78 525 148.01 532.44 164.64 518.7 169.89 511.79 153.78"/><polygon class="cls-17" points="511.79 153.78 525 148.01 532.44 164.64 518.7 169.89 511.79 153.78"/><polygon class="cls-16" points="474.17 165.6 483.44 161.57 504.79 214.16 490.53 219.67 479.76 192.64 469.44 197.01 472.15 204.1 475.56 202.79 480.64 215.74 462.79 222.47 458.15 211.62 462.44 209.79 455.62 193.42 476.62 185.28 471.89 174.7 477.31 172.51 474.17 165.6"/><polygon class="cls-17" points="474.17 165.6 483.44 161.57 504.79 214.16 490.53 219.67 479.76 192.64 469.44 197.01 472.15 204.1 475.56 202.79 480.64 215.74 462.79 222.47 458.15 211.62 462.44 209.79 455.62 193.42 476.62 185.28 471.89 174.7 477.31 172.51 474.17 165.6"/><line class="cls-16" x1="466.6" y1="189.16" x2="469.44" y2="197.01"/><line class="cls-17" x1="466.6" y1="189.16" x2="469.44" y2="197.01"/><polygon class="cls-16" points="417.38 189.66 422.36 201.47 431.03 197.45 434.18 204.45 442.14 200.77 433.91 182.22 417.38 189.66"/><polygon class="cls-17" points="417.38 189.66 422.36 201.47 431.03 197.45 434.18 204.45 442.14 200.77 433.91 182.22 417.38 189.66"/><polygon class="cls-16" points="354.03 211.45 373.01 202.78 380.19 218.53 373.54 221.6 380.19 236.47 375.03 238.66 364.88 216.78 362.25 217.92 365.31 224.31 361.46 225.97 354.03 211.45"/><polygon class="cls-17" points="354.03 211.45 373.01 202.78 380.19 218.53 373.54 221.6 380.19 236.47 375.03 238.66 364.88 216.78 362.25 217.92 365.31 224.31 361.46 225.97 354.03 211.45"/><polyline class="cls-16" points="368.65 224.92 362.34 227.72 367.85 240.06 374.32 237.14"/><polyline class="cls-17" points="368.65 224.92 362.34 227.72 367.85 240.06 374.32 237.14"/><polygon class="cls-16" points="405.09 235.84 394.81 240.62 397.83 247.04 387.88 251.55 384.85 244.86 374.98 249.27 382.9 266.42 406.85 256.07 402.31 245.6 408.49 242.86 405.09 235.84"/><polygon class="cls-17" points="405.09 235.84 394.81 240.62 397.83 247.04 387.88 251.55 384.85 244.86 374.98 249.27 382.9 266.42 406.85 256.07 402.31 245.6 408.49 242.86 405.09 235.84"/><polygon class="cls-16" points="425.6 248.72 421.14 239.45 430.94 234.99 435.4 244.17 425.6 248.72"/><polygon class="cls-17" points="425.6 248.72 421.14 239.45 430.94 234.99 435.4 244.17 425.6 248.72"/><polygon class="cls-16" points="439.17 265.79 464.98 254.5 469.7 264.04 444.76 274.54 439.17 265.79"/><polygon class="cls-17" points="439.17 265.79 464.98 254.5 469.7 264.04 444.76 274.54 439.17 265.79"/><polygon class="cls-16" points="392.88 280.4 407.58 272.87 415.36 288.89 400.58 295.89 392.88 280.4"/><polygon class="cls-17" points="392.88 280.4 407.58 272.87 415.36 288.89 400.58 295.89 392.88 280.4"/><polygon class="cls-16" points="411.95 309.36 422.1 328.35 463.93 307.7 455.61 291.6 432.34 303.5 430.24 299.04 411.95 309.36"/><polygon class="cls-17" points="411.95 309.36 422.1 328.35 463.93 307.7 455.61 291.6 432.34 303.5 430.24 299.04 411.95 309.36"/><polygon class="cls-16" points="434.96 339.2 441.18 352.5 466.46 340.16 459.9 327.12 434.96 339.2"/><polygon class="cls-17" points="434.96 339.2 441.18 352.5 466.46 340.16 459.9 327.12 434.96 339.2"/><polygon class="cls-16" points="561.14 319.51 593.51 380.41 529.73 413.05 499.01 352.5 561.14 319.51"/><path class="cls-16" d="M529.65,413.28l-0.08-.16-30.79-60.7,0.15-.08,62.28-33.07,0.08,0.15,32.46,61.06-0.16.08Zm-30.4-60.71,30.55,60.24,63.47-32.48-32.21-60.59Z"/><polygon class="cls-16" points="390.17 390.97 394.83 388.64 393.31 385.49 399.15 382.8 400.81 386.01 405.3 383.88 410.93 395.37 395.85 403.01 390.17 390.97"/><polygon class="cls-17" points="390.17 390.97 394.83 388.64 393.31 385.49 399.15 382.8 400.81 386.01 405.3 383.88 410.93 395.37 395.85 403.01 390.17 390.97"/><polygon class="cls-16" points="372.14 353.99 381.76 374.02 396.2 366.41 386.14 346.64 372.14 353.99"/><polygon class="cls-17" points="372.14 353.99 381.76 374.02 396.2 366.41 386.14 346.64 372.14 353.99"/><polygon class="cls-16" points="370.39 318.72 358.84 323.62 361.46 330.01 354.9 333.07 358.14 339.81 364.62 337.1 367.42 342.61 379.4 337.36 370.39 318.72"/><polygon class="cls-17" points="370.39 318.72 358.84 323.62 361.46 330.01 354.9 333.07 358.14 339.81 364.62 337.1 367.42 342.61 379.4 337.36 370.39 318.72"/><polygon class="cls-16" points="539.73 251.2 548.83 270.92 566.22 262.99 556.76 243.27 539.73 251.2"/><polygon class="cls-17" points="539.73 251.2 548.83 270.92 566.22 262.99 556.76 243.27 539.73 251.2"/><polygon class="cls-16" points="575.2 201.5 581.38 213.87 603.32 202.78 597.01 192.02 575.2 201.5"/><polygon class="cls-17" points="575.2 201.5 581.38 213.87 603.32 202.78 597.01 192.02 575.2 201.5"/><polygon class="cls-16" points="331.71 274.97 339.18 290.75 353.76 283.99 346.76 268 331.71 274.97"/><polygon class="cls-17" points="331.71 274.97 339.18 290.75 353.76 283.99 346.76 268 331.71 274.97"/><polygon class="cls-16" points="326.13 258.65 332.08 271.04 345.42 264.87 339.63 252.41 326.13 258.65"/><polygon class="cls-17" points="326.13 258.65 332.08 271.04 345.42 264.87 339.63 252.41 326.13 258.65"/><polygon class="cls-16" points="305.54 234.19 312.19 250.96 332.72 244.09 326.54 227.16 305.54 234.19"/><polygon class="cls-17" points="305.54 234.19 312.19 250.96 332.72 244.09 326.54 227.16 305.54 234.19"/><polygon class="cls-16" points="251.8 249.22 263.58 246.3 267.08 261.35 255.3 263.69 251.8 249.22"/><polygon class="cls-17" points="251.8 249.22 263.58 246.3 267.08 261.35 255.3 263.69 251.8 249.22"/><polygon class="cls-16" points="280.38 293.55 322.61 279.08 327.4 293.08 284.7 306.62 280.38 293.55"/><polygon class="cls-17" points="280.38 293.55 322.61 279.08 327.4 293.08 284.7 306.62 280.38 293.55"/><polygon class="cls-16" points="166.87 380.7 182.62 442.54 216.68 433.67 210.62 410.1 198.72 412.67 189.5 374.87 166.87 380.7"/><polygon class="cls-17" points="166.87 380.7 182.62 442.54 216.68 433.67 210.62 410.1 198.72 412.67 189.5 374.87 166.87 380.7"/><polygon class="cls-16" points="158.47 351.65 164.53 375.8 216.68 361.57 214 348.5 224.38 345.82 215.98 313.97 203.85 316.89 193.12 310.24 173.75 314.67 161.85 334.74 165.35 350.02 158.47 351.65"/><polygon class="cls-17" points="158.47 351.65 164.53 375.8 216.68 361.57 214 348.5 224.38 345.82 215.98 313.97 203.85 316.89 193.12 310.24 173.75 314.67 161.85 334.74 165.35 350.02 158.47 351.65"/><polygon class="cls-16" points="151.64 315.83 146.39 316.62 143.24 298.33 149.54 297.37 150.15 301.83 151.64 301.49 153.48 311.29 151.2 311.81 151.64 315.83"/><polygon class="cls-17" points="151.64 315.83 146.39 316.62 143.24 298.33 149.54 297.37 150.15 301.83 151.64 301.49 153.48 311.29 151.2 311.81 151.64 315.83"/><polygon class="cls-16" points="135.37 274.45 139.74 297.37 144.99 296.32 143.24 285.3 146.48 284.69 144.03 272.52 135.37 274.45"/><polygon class="cls-17" points="135.37 274.45 139.74 297.37 144.99 296.32 143.24 285.3 146.48 284.69 144.03 272.52 135.37 274.45"/><polygon class="cls-16" points="100.28 277.34 106.31 305.77 118.39 302.97 116.2 292.56 131.95 289.24 129.94 280.31 109.38 284.69 107.63 276.11 100.28 277.34"/><polygon class="cls-17" points="100.28 277.34 106.31 305.77 118.39 302.97 116.2 292.56 131.95 289.24 129.94 280.31 109.38 284.69 107.63 276.11 100.28 277.34"/><polygon class="cls-16" points="73.85 286.96 92.31 283.2 95.2 297.37 90.56 298.16 91.35 302.27 81.73 304.11 81.11 299.74 76.83 300.17 73.85 286.96"/><polygon class="cls-17" points="73.85 286.96 92.31 283.2 95.2 297.37 90.56 298.16 91.35 302.27 81.73 304.11 81.11 299.74 76.83 300.17 73.85 286.96"/><polygon class="cls-16" points="33.16 290.37 38.5 312.34 57.93 307.7 52.94 286.61 33.16 290.37"/><polygon class="cls-17" points="33.16 290.37 38.5 312.34 57.93 307.7 52.94 286.61 33.16 290.37"/><g class="cls-18"><path class="cls-16" d="M42.35,321.79c0,0.26,2.71,15.93,2.71,15.93l17.76-3.94L60.2,318.72Z"/><path class="cls-17" d="M42.35,321.79c0,0.26,2.71,15.93,2.71,15.93l17.76-3.94L60.2,318.72Z"/><polygon class="cls-16" points="-5.42 309.62 -2.1 329.14 4.9 328.22 5.78 335.17 20.21 333.07 16.8 311.55 11.99 311.99 10.94 306.47 -5.42 309.62"/><polygon class="cls-17" points="-5.42 309.62 -2.1 329.14 4.9 328.22 5.78 335.17 20.21 333.07 16.8 311.55 11.99 311.99 10.94 306.47 -5.42 309.62"/><polygon class="cls-16" points="-7.96 335.87 -1.83 365.8 10.33 363.61 4.12 333.6 -7.96 335.87"/><polygon class="cls-17" points="-7.96 335.87 -1.83 365.8 10.33 363.61 4.12 333.6 -7.96 335.87"/><polygon class="cls-16" points="9.85 361.6 20.64 359.41 22.22 366.58 13.12 368.25 16.03 381.99 3.14 384.35 -1.06 365.62 10.23 363.44 9.85 361.6"/><polyline class="cls-17" points="9.85 361.6 20.64 359.41 22.22 366.58 13.12 368.25 16.03 381.99 3.14 384.35 -1.06 365.62 10.23 363.44 9.85 361.6"/><polygon class="cls-16" points="25.99 386.19 27.83 397.04 40.69 394.5 39.38 388.02 43.31 387.24 42.62 382.95 25.99 386.19"/><polygon class="cls-17" points="25.99 386.19 27.83 397.04 40.69 394.5 39.38 388.02 43.31 387.24 42.62 382.95 25.99 386.19"/><polygon class="cls-16" points="45.5 381.64 67.03 377 69.48 388.55 59.41 389.99 59.85 393.1 51.98 394.5 51.28 391.44 47.69 391.96 45.5 381.64"/><polygon class="cls-17" points="45.5 381.64 67.03 377 69.48 388.55 59.41 389.99 59.85 393.1 51.98 394.5 51.28 391.44 47.69 391.96 45.5 381.64"/><polygon class="cls-16" points="100.36 390.21 101.68 397.74 106.58 397.04 107.36 402.37 126.27 398.61 123.38 385.75 100.36 390.21"/><polygon class="cls-17" points="100.36 390.21 101.68 397.74 106.58 397.04 107.36 402.37 126.27 398.61 123.38 385.75 100.36 390.21"/><polygon class="cls-16" points="126.97 381.72 130.47 399.92 147.26 396.34 143.94 378.66 126.97 381.72"/><polygon class="cls-17" points="126.97 381.72 130.47 399.92 147.26 396.34 143.94 378.66 126.97 381.72"/><polygon class="cls-16" points="96.78 359.32 98.88 370.7 102.29 370.17 103.6 376.47 116.55 373.94 112.61 355.56 96.78 358.62 96.78 359.32"/><polygon class="cls-17" points="96.78 359.32 98.88 370.7 102.29 370.17 103.6 376.47 116.55 373.94 112.61 355.56 96.78 358.62 96.78 359.32"/><polygon class="cls-16" points="123.64 352.94 126.61 367.9 143.94 364.22 140.62 349.08 123.64 352.94"/><polygon class="cls-17" points="123.64 352.94 126.61 367.9 143.94 364.22 140.62 349.08 123.64 352.94"/><rect class="cls-16" x="258.82" y="181.83" width="11.92" height="25.1" transform="translate(-46.2 88.64) rotate(-17.5)"/><rect class="cls-17" x="258.82" y="181.83" width="11.92" height="25.1" transform="translate(-46.2 88.64) rotate(-17.5)"/><rect class="cls-16" x="265.36" y="169.71" width="15.19" height="8.21" transform="translate(-39.64 90.13) rotate(-17.5)"/><rect class="cls-17" x="265.36" y="169.71" width="15.19" height="8.21" transform="translate(-39.64 90.13) rotate(-17.5)"/><rect class="cls-16" x="288.6" y="171.14" width="20.17" height="25.1" transform="translate(-41.42 98.34) rotate(-17.5)"/><rect class="cls-17" x="288.6" y="171.14" width="20.17" height="25.1" transform="translate(-41.42 98.34) rotate(-17.5)"/></g></g></g></g><polygon class="cls-19" points="14.91 19.33 15.96 33.38 35.15 32.04 34.16 17.87 14.91 19.33"/><polygon class="cls-17" points="14.91 19.33 15.96 33.38 35.15 32.04 34.16 17.87 14.91 19.33"/><polygon class="cls-19" points="50.16 2.09 51.48 7.31 67.81 3.23 67.52 2.09 50.16 2.09"/><g class="cls-9"><polygon class="cls-17" points="47.11 -9.96 51.48 7.31 67.81 3.23 63.32 -14.1 47.11 -9.96"/></g><polygon class="cls-19" points="128.54 17.55 147.97 12.3 151.47 26.12 132.04 30.76 128.54 17.55"/><polygon class="cls-17" points="128.54 17.55 147.97 12.3 151.47 26.12 132.04 30.76 128.54 17.55"/><polygon class="cls-19" points="190.14 7.31 194.08 18.16 207.99 13.7 203.97 2.32 190.14 7.31"/><g class="cls-9"><polygon class="cls-17" points="190.14 7.31 203.97 2.32 207.99 13.7 194.08 18.16 190.14 7.31"/></g><polygon class="cls-19" points="204.4 33.93 217.53 25.75 226.8 41.63 213.59 49.42 204.4 33.93"/><polygon class="cls-17" points="204.4 33.93 217.53 25.75 226.8 41.63 213.59 49.42 204.4 33.93"/><polygon class="cls-19" points="179.29 29.8 191.1 29.01 191.8 38.99 179.9 39.6 179.29 29.8"/><polygon class="cls-17" points="179.29 29.8 191.1 29.01 191.8 38.99 179.9 39.6 179.29 29.8"/><polygon class="cls-19" points="226.28 70.14 241.5 61.56 251.13 79.32 235.9 87.46 226.28 70.14"/><polygon class="cls-17" points="226.28 70.14 241.5 61.56 251.13 79.32 235.9 87.46 226.28 70.14"/><polygon class="cls-19" points="35.67 121.18 36.37 133.66 49.03 132.9 48.8 129.58 52.59 129.34 52.01 120.13 35.67 121.18"/><polygon class="cls-17" points="35.67 121.18 36.37 133.66 49.03 132.9 48.8 129.58 52.59 129.34 52.01 120.13 35.67 121.18"/><polygon class="cls-19" points="69.45 112.83 71.08 119.83 85.2 116.33 83.33 109.28 69.45 112.83"/><polygon class="cls-17" points="69.45 112.83 71.08 119.83 85.2 116.33 83.33 109.28 69.45 112.83"/><polygon class="cls-19" points="40.57 140.84 41.68 151.45 51.95 150.17 52.3 153.55 62.56 152.15 60.52 138.15 40.57 140.84"/><polygon class="cls-17" points="40.57 140.84 41.68 151.45 51.95 150.17 52.3 153.55 62.56 152.15 60.52 138.15 40.57 140.84"/><polygon class="cls-19" points="111.74 160.87 121.89 158.42 126.61 178.29 116.81 180.47 111.74 160.87"/><polygon class="cls-17" points="111.74 160.87 121.89 158.42 126.61 178.29 116.81 180.47 111.74 160.87"/><polygon class="cls-19" points="81.47 189.22 104.83 184.15 106.75 192.64 83.48 197.36 81.47 189.22"/><polygon class="cls-17" points="81.47 189.22 104.83 184.15 106.75 192.64 83.48 197.36 81.47 189.22"/><polygon class="cls-19" points="140.09 194.47 154.53 191.15 160.91 220.81 143.5 224.75 138.69 205.15 142.1 204.45 140.09 194.47"/><polygon class="cls-17" points="140.09 194.47 154.53 191.15 160.91 220.81 143.5 224.75 138.69 205.15 142.1 204.45 140.09 194.47"/><polygon class="cls-19" points="58.54 214.95 72.45 211.27 79.28 237.35 65.1 240.85 58.54 214.95"/><polygon class="cls-17" points="58.54 214.95 72.45 211.27 79.28 237.35 65.1 240.85 58.54 214.95"/><polygon class="cls-19" points="27.57 231.14 39.64 227.99 44.89 248.64 32.38 251.44 27.57 231.14"/><polygon class="cls-17" points="27.57 231.14 39.64 227.99 44.89 248.64 32.38 251.44 27.57 231.14"/><polygon class="cls-19" points="1.86 239.26 1.86 254.66 9.63 253.19 6.74 238.22 1.86 239.26"/><g class="cls-9"><polygon class="cls-17" points="-5.6 240.85 6.74 238.22 9.63 253.19 -1.92 255.37 -1.57 257.65 -11.81 259.4 -14 247.41 -4.63 245.75 -5.6 240.85"/></g><polygon class="cls-19" points="267.9 37.82 273.96 50.19 286.92 44 280.73 31.4 267.9 37.82"/><polygon class="cls-17" points="267.9 37.82 273.96 50.19 286.92 44 280.73 31.4 267.9 37.82"/><polygon class="cls-19" points="279.1 71.89 286.92 88.22 306.4 78.3 298.23 62.32 279.1 71.89"/><polygon class="cls-17" points="279.1 71.89 286.92 88.22 306.4 78.3 298.23 62.32 279.1 71.89"/><polygon class="cls-19" points="312.58 59.17 318.76 68.62 329.85 60.69 323.2 51.24 312.58 59.17"/><polygon class="cls-17" points="312.58 59.17 318.76 68.62 329.85 60.69 323.2 51.24 312.58 59.17"/><polygon class="cls-19" points="300.21 105.31 304.06 112.31 322.96 101.93 321.33 99.13 329.15 95.28 326.12 90.26 300.21 105.31"/><polygon class="cls-17" points="300.21 105.31 304.06 112.31 322.96 101.93 321.33 99.13 329.15 95.28 326.12 90.26 300.21 105.31"/><polygon class="cls-19" points="320.75 117.87 324.6 127.32 342.21 119.62 338.13 109.58 320.75 117.87"/><polygon class="cls-17" points="320.75 117.87 324.6 127.32 342.21 119.62 338.13 109.58 320.75 117.87"/><polygon class="cls-20" points="390.25 84.36 375.2 91.29 379.7 101.09 394.93 94.48 390.25 84.36"/><polygon class="cls-17" points="390.25 84.36 375.2 91.29 379.7 101.09 394.93 94.48 390.25 84.36"/><polygon class="cls-19" points="397.79 79.7 404.09 98.89 411.62 96.27 405.14 77.08 397.79 79.7"/><polygon class="cls-17" points="397.79 79.7 404.09 98.89 411.62 96.27 405.14 77.08 397.79 79.7"/><polygon class="cls-19" points="173.05 146.61 174.45 168.08 186.87 167.49 185.18 145.79 173.05 146.61"/><polygon class="cls-17" points="173.05 146.61 174.45 168.08 186.87 167.49 185.18 145.79 173.05 146.61"/><polygon class="cls-19" points="222.05 189.95 224.26 210.37 238.38 208.85 236.05 188.44 222.05 189.95"/><polygon class="cls-17" points="222.05 189.95 224.26 210.37 238.38 208.85 236.05 188.44 222.05 189.95"/><polygon class="cls-19" points="328.13 154.24 334.08 172 352.45 165.44 345.89 147.94 328.13 154.24"/><polygon class="cls-17" points="328.13 154.24 334.08 172 352.45 165.44 345.89 147.94 328.13 154.24"/><polygon class="cls-21" points="397.22 139.37 403.43 155.3 424.96 146.9 419.45 134.12 414.02 136.22 412.88 133.07 397.22 139.37"/><polygon class="cls-17" points="397.22 139.37 403.43 155.3 424.96 146.9 419.45 134.12 414.02 136.22 412.88 133.07 397.22 139.37"/><polygon class="cls-19" points="421.93 119.14 429.8 140.4 447.3 133.4 442.05 119.92 437.42 121.41 434.62 114.24 421.93 119.14"/><polygon class="cls-17" points="421.93 119.14 429.8 140.4 447.3 133.4 442.05 119.92 437.42 121.41 434.62 114.24 421.93 119.14"/><polygon class="cls-19" points="451.5 100.15 456.93 114.23 466.81 109.69 468.48 114.23 486.24 107.19 484.58 103.03 491.14 100.76 484.75 84.75 473.46 89.39 470.84 83.35 453.34 90.7 456.49 98.25 451.5 100.15"/><polygon class="cls-17" points="451.5 100.15 456.93 114.23 466.81 109.69 468.48 114.23 486.24 107.19 484.58 103.03 491.14 100.76 484.75 84.75 473.46 89.39 470.84 83.35 453.34 90.7 456.49 98.25 451.5 100.15"/><polygon class="cls-19" points="505.75 91.66 513.63 110.3 525.09 105.22 517.04 86.67 505.75 91.66"/><polygon class="cls-17" points="505.75 91.66 513.63 110.3 525.09 105.22 517.04 86.67 505.75 91.66"/><polygon class="cls-19" points="525.79 90.38 531.04 99.35 543.73 91.78 538.22 82.85 525.79 90.38"/><polygon class="cls-17" points="525.79 90.38 531.04 99.35 543.73 91.78 538.22 82.85 525.79 90.38"/><polygon class="cls-19" points="542.94 64.97 547.05 73.11 550.29 71.27 557.64 87.55 566.57 83.09 554.75 59.29 542.94 64.97"/><polygon class="cls-17" points="542.94 64.97 547.05 73.11 550.29 71.27 557.64 87.55 566.57 83.09 554.75 59.29 542.94 64.97"/><polygon class="cls-19" points="568.75 66.83 573.83 78.64 589.49 71.82 584.5 60.01 568.75 66.83"/><polygon class="cls-17" points="568.75 66.83 573.83 78.64 589.49 71.82 584.5 60.01 568.75 66.83"/><polygon class="cls-19" points="593.34 52.81 600.95 68.03 611.8 62.35 608.39 56.14 607.08 56.92 602.57 47.73 593.34 52.81"/><polygon class="cls-17" points="593.34 52.81 600.95 68.03 611.8 62.35 608.39 56.14 607.08 56.92 602.57 47.73 593.34 52.81"/><polygon class="cls-19" points="697.73 66.37 718.38 55.79 734.22 87.99 712.78 98.31 697.73 66.37"/><polygon class="cls-17" points="697.73 66.37 718.38 55.79 734.22 87.99 712.78 98.31 697.73 66.37"/><polygon class="cls-19" points="674.89 74.07 683.73 70.05 697.73 97.7 683.9 103.65 672.44 79.94 676.73 77.92 674.89 74.07"/><polygon class="cls-17" points="674.89 74.07 683.73 70.05 697.73 97.7 683.9 103.65 672.44 79.94 676.73 77.92 674.89 74.07"/><polygon class="cls-19" points="636.22 90.17 652.32 82.12 662.29 101.99 645.66 109.77 636.22 90.17"/><polygon class="cls-17" points="636.22 90.17 652.32 82.12 662.29 101.99 645.66 109.77 636.22 90.17"/><polygon class="cls-19" points="579.87 117.56 592.55 111.44 599.55 126.22 586.95 132.09 579.87 117.56"/><polygon class="cls-17" points="579.87 117.56 592.55 111.44 599.55 126.22 586.95 132.09 579.87 117.56"/><polygon class="cls-19" points="607.37 141.83 614.54 138.06 621.19 150.58 613.84 154.25 607.37 141.83"/><polygon class="cls-17" points="607.37 141.83 614.54 138.06 621.19 150.58 613.84 154.25 607.37 141.83"/><polygon class="cls-19" points="545.83 145.69 565.69 137.6 572.25 152.21 568.31 153.79 572.86 163.85 564.99 166.82 560.61 156.15 551.69 160.17 545.83 145.69"/><polygon class="cls-17" points="545.83 145.69 565.69 137.6 572.25 152.21 568.31 153.79 572.86 163.85 564.99 166.82 560.61 156.15 551.69 160.17 545.83 145.69"/><polygon class="cls-19" points="511.09 153.09 524.3 147.31 531.74 163.94 518 169.19 511.09 153.09"/><polygon class="cls-17" points="511.09 153.09 524.3 147.31 531.74 163.94 518 169.19 511.09 153.09"/><polygon class="cls-19" points="473.46 164.9 482.74 160.87 504.09 213.46 489.83 218.97 479.06 191.94 468.74 196.31 471.45 203.4 474.87 202.09 479.94 215.03 462.09 221.77 457.45 210.92 461.74 209.09 454.92 192.72 475.92 184.59 471.19 174 476.62 171.81 473.46 164.9"/><polygon class="cls-17" points="473.46 164.9 482.74 160.87 504.09 213.46 489.83 218.97 479.06 191.94 468.74 196.31 471.45 203.4 474.87 202.09 479.94 215.03 462.09 221.77 457.45 210.92 461.74 209.09 454.92 192.72 475.92 184.59 471.19 174 476.62 171.81 473.46 164.9"/><line class="cls-19" x1="465.9" y1="188.46" x2="468.74" y2="196.31"/><line class="cls-17" x1="465.9" y1="188.46" x2="468.74" y2="196.31"/><polygon class="cls-19" points="416.68 188.96 421.67 200.77 430.33 196.75 433.48 203.75 441.44 200.07 433.21 181.52 416.68 188.96"/><polygon class="cls-17" points="416.68 188.96 421.67 200.77 430.33 196.75 433.48 203.75 441.44 200.07 433.21 181.52 416.68 188.96"/><polygon class="cls-19" points="353.33 210.75 372.31 202.09 379.49 217.84 372.84 220.9 379.49 235.77 374.33 237.96 364.18 216.09 361.55 217.22 364.61 223.61 360.76 225.27 353.33 210.75"/><polygon class="cls-17" points="353.33 210.75 372.31 202.09 379.49 217.84 372.84 220.9 379.49 235.77 374.33 237.96 364.18 216.09 361.55 217.22 364.61 223.61 360.76 225.27 353.33 210.75"/><polyline class="cls-19" points="367.95 224.22 361.64 227.02 367.15 239.36 373.62 236.44"/><polyline class="cls-17" points="367.95 224.22 361.64 227.02 367.15 239.36 373.62 236.44"/><polygon class="cls-19" points="404.39 235.13 394.11 239.92 397.13 246.34 387.18 250.85 384.15 244.16 374.28 248.57 382.2 265.72 406.14 255.38 401.62 244.9 407.79 242.16 404.39 235.13"/><polygon class="cls-17" points="404.39 235.13 394.11 239.92 397.13 246.34 387.18 250.85 384.15 244.16 374.28 248.57 382.2 265.72 406.14 255.38 401.62 244.9 407.79 242.16 404.39 235.13"/><polygon class="cls-19" points="424.9 248.02 420.44 238.75 430.24 234.28 434.7 243.47 424.9 248.02"/><polygon class="cls-17" points="424.9 248.02 420.44 238.75 430.24 234.28 434.7 243.47 424.9 248.02"/><polygon class="cls-19" points="438.46 265.08 464.28 253.8 469 263.33 444.06 273.83 438.46 265.08"/><polygon class="cls-17" points="438.46 265.08 464.28 253.8 469 263.33 444.06 273.83 438.46 265.08"/><polygon class="cls-19" points="392.18 279.7 406.88 272.17 414.67 288.19 399.88 295.19 392.18 279.7"/><polygon class="cls-17" points="392.18 279.7 406.88 272.17 414.67 288.19 399.88 295.19 392.18 279.7"/><polygon class="cls-19" points="411.25 308.66 421.4 327.65 463.23 307 454.91 290.9 431.64 302.8 429.54 298.33 411.25 308.66"/><polygon class="cls-17" points="411.25 308.66 421.4 327.65 463.23 307 454.91 290.9 431.64 302.8 429.54 298.33 411.25 308.66"/><polygon class="cls-19" points="434.26 338.5 440.48 351.8 465.76 339.46 459.2 326.42 434.26 338.5"/><polygon class="cls-17" points="434.26 338.5 440.48 351.8 465.76 339.46 459.2 326.42 434.26 338.5"/><polygon class="cls-19" points="498.31 351.8 523.82 402.09 549.08 402.09 592.81 379.71 560.44 318.81 498.31 351.8"/><polygon class="cls-16" points="498.23 351.64 498.08 351.72 523.63 402.09 524.02 402.09 498.55 351.87 560.37 319.05 592.58 379.64 548.7 402.09 549.47 402.09 592.89 379.87 593.05 379.79 560.59 318.73 560.51 318.57 498.23 351.64"/><polygon class="cls-19" points="392.62 384.79 394.13 387.94 389.46 390.27 395.05 402.09 395.6 402.09 410.23 394.67 404.6 383.18 400.11 385.31 398.45 382.1 392.62 384.79"/><polygon class="cls-17" points="389.46 390.27 394.13 387.94 392.62 384.79 398.45 382.1 400.11 385.31 404.6 383.18 410.23 394.67 395.15 402.31 389.46 390.27"/><polygon class="cls-19" points="371.44 353.29 381.06 373.32 395.5 365.71 385.44 345.94 371.44 353.29"/><polygon class="cls-17" points="371.44 353.29 381.06 373.32 395.5 365.71 385.44 345.94 371.44 353.29"/><polygon class="cls-19" points="369.69 318.02 358.14 322.92 360.76 329.31 354.2 332.37 357.44 339.11 363.92 336.4 366.71 341.91 378.7 336.66 369.69 318.02"/><polygon class="cls-17" points="369.69 318.02 358.14 322.92 360.76 329.31 354.2 332.37 357.44 339.11 363.92 336.4 366.71 341.91 378.7 336.66 369.69 318.02"/><polygon class="cls-19" points="539.03 250.5 548.13 270.22 565.51 262.29 556.07 242.57 539.03 250.5"/><polygon class="cls-17" points="539.03 250.5 548.13 270.22 565.51 262.29 556.07 242.57 539.03 250.5"/><polygon class="cls-19" points="574.5 200.8 580.68 213.17 602.62 202.09 596.32 191.32 574.5 200.8"/><polygon class="cls-17" points="574.5 200.8 580.68 213.17 602.62 202.09 596.32 191.32 574.5 200.8"/><polygon class="cls-19" points="331.01 274.27 338.48 290.05 353.06 283.29 346.06 267.3 331.01 274.27"/><polygon class="cls-17" points="331.01 274.27 338.48 290.05 353.06 283.29 346.06 267.3 331.01 274.27"/><polygon class="cls-19" points="325.43 257.95 331.38 270.34 344.72 264.17 338.93 251.71 325.43 257.95"/><polygon class="cls-17" points="325.43 257.95 331.38 270.34 344.72 264.17 338.93 251.71 325.43 257.95"/><polygon class="cls-19" points="304.84 233.49 311.49 250.26 332.02 243.39 325.84 226.46 304.84 233.49"/><polygon class="cls-17" points="304.84 233.49 311.49 250.26 332.02 243.39 325.84 226.46 304.84 233.49"/><polygon class="cls-19" points="251.1 248.52 262.88 245.6 266.38 260.65 254.6 262.99 251.1 248.52"/><polygon class="cls-17" points="251.1 248.52 262.88 245.6 266.38 260.65 254.6 262.99 251.1 248.52"/><polygon class="cls-19" points="279.68 292.85 321.91 278.39 326.7 292.39 284 305.92 279.68 292.85"/><polygon class="cls-17" points="279.68 292.85 321.91 278.39 326.7 292.39 284 305.92 279.68 292.85"/><polygon class="cls-19" points="166.16 380 171.79 402.09 195.6 402.09 188.8 374.17 166.16 380"/><g class="cls-9"><polygon class="cls-17" points="166.16 380 181.91 441.83 215.98 432.97 209.91 409.4 198.01 411.97 188.8 374.17 166.16 380"/></g><polygon class="cls-19" points="157.76 350.95 163.83 375.1 215.98 360.87 213.3 347.8 223.68 345.12 215.28 313.27 203.15 316.19 192.41 309.54 173.05 313.97 161.15 334.04 164.65 349.32 157.76 350.95"/><polygon class="cls-17" points="157.76 350.95 163.83 375.1 215.98 360.87 213.3 347.8 223.68 345.12 215.28 313.27 203.15 316.19 192.41 309.54 173.05 313.97 161.15 334.04 164.65 349.32 157.76 350.95"/><polygon class="cls-19" points="150.94 315.14 145.69 315.92 142.54 297.64 148.84 296.67 149.45 301.14 150.94 300.79 152.78 310.59 150.5 311.11 150.94 315.14"/><polygon class="cls-17" points="150.94 315.14 145.69 315.92 142.54 297.64 148.84 296.67 149.45 301.14 150.94 300.79 152.78 310.59 150.5 311.11 150.94 315.14"/><polygon class="cls-19" points="134.66 273.75 139.04 296.67 144.29 295.62 142.54 284.6 145.78 283.99 143.33 271.82 134.66 273.75"/><polygon class="cls-17" points="134.66 273.75 139.04 296.67 144.29 295.62 142.54 284.6 145.78 283.99 143.33 271.82 134.66 273.75"/><polygon class="cls-19" points="99.58 276.64 105.61 305.07 117.69 302.27 115.5 291.86 131.25 288.54 129.24 279.61 108.68 283.99 106.93 275.41 99.58 276.64"/><polygon class="cls-17" points="99.58 276.64 105.61 305.07 117.69 302.27 115.5 291.86 131.25 288.54 129.24 279.61 108.68 283.99 106.93 275.41 99.58 276.64"/><polygon class="cls-19" points="73.15 286.26 91.61 282.5 94.5 296.67 89.86 297.46 90.65 301.57 81.03 303.41 80.42 299.04 76.13 299.47 73.15 286.26"/><polygon class="cls-17" points="73.15 286.26 91.61 282.5 94.5 296.67 89.86 297.46 90.65 301.57 81.03 303.41 80.42 299.04 76.13 299.47 73.15 286.26"/><polygon class="cls-19" points="32.47 289.67 37.8 311.64 57.23 307 52.24 285.91 32.47 289.67"/><polygon class="cls-17" points="32.47 289.67 37.8 311.64 57.23 307 52.24 285.91 32.47 289.67"/><g class="cls-9"><path class="cls-22" d="M41.65,321.09c0,0.26,2.71,15.93,2.71,15.93l17.76-3.94L59.5,318Z"/><path class="cls-17" d="M41.65,321.09c0,0.26,2.71,15.93,2.71,15.93l17.76-3.94L59.5,318Z"/><polygon class="cls-22" points="-6.12 308.92 -2.8 328.44 4.2 327.52 5.08 334.47 19.51 332.37 16.1 310.85 11.29 311.29 10.24 305.77 -6.12 308.92"/><polygon class="cls-17" points="-6.12 308.92 -2.8 328.44 4.2 327.52 5.08 334.47 19.51 332.37 16.1 310.85 11.29 311.29 10.24 305.77 -6.12 308.92"/><polygon class="cls-22" points="-8.66 335.17 -2.54 365.1 9.63 362.91 3.42 332.9 -8.66 335.17"/><polygon class="cls-17" points="-8.66 335.17 -2.54 365.1 9.63 362.91 3.42 332.9 -8.66 335.17"/><polygon class="cls-22" points="9.15 360.9 19.94 358.71 21.52 365.88 12.42 367.55 15.33 381.29 2.44 383.65 -1.76 364.92 9.53 362.74 9.15 360.9"/><polyline class="cls-17" points="9.15 360.9 19.94 358.71 21.52 365.88 12.42 367.55 15.33 381.29 2.44 383.65 -1.76 364.92 9.53 362.74 9.15 360.9"/><polygon class="cls-22" points="25.29 385.49 27.13 396.33 39.99 393.8 38.68 387.32 42.62 386.54 41.91 382.25 25.29 385.49"/><polygon class="cls-17" points="25.29 385.49 27.13 396.33 39.99 393.8 38.68 387.32 42.62 386.54 41.91 382.25 25.29 385.49"/><polygon class="cls-22" points="44.8 380.94 66.33 376.3 68.78 387.85 58.71 389.29 59.15 392.4 51.28 393.8 50.58 390.74 46.99 391.26 44.8 380.94"/><polygon class="cls-17" points="44.8 380.94 66.33 376.3 68.78 387.85 58.71 389.29 59.15 392.4 51.28 393.8 50.58 390.74 46.99 391.26 44.8 380.94"/><polygon class="cls-22" points="99.67 389.51 100.98 397.04 105.88 396.34 106.67 401.67 125.56 397.91 122.68 385.05 99.67 389.51"/><polygon class="cls-17" points="99.67 389.51 100.98 397.04 105.88 396.34 106.67 401.67 125.56 397.91 122.68 385.05 99.67 389.51"/><polygon class="cls-22" points="126.27 381.02 129.76 399.22 146.56 395.64 143.24 377.96 126.27 381.02"/><polygon class="cls-17" points="126.27 381.02 129.76 399.22 146.56 395.64 143.24 377.96 126.27 381.02"/><polygon class="cls-22" points="96.08 358.62 98.18 370 101.59 369.47 102.9 375.77 115.85 373.24 111.92 354.86 96.08 357.92 96.08 358.62"/><polygon class="cls-17" points="96.08 358.62 98.18 370 101.59 369.47 102.9 375.77 115.85 373.24 111.92 354.86 96.08 357.92 96.08 358.62"/><polygon class="cls-22" points="122.94 352.24 125.92 367.2 143.24 363.52 139.91 348.39 122.94 352.24"/><polygon class="cls-17" points="122.94 352.24 125.92 367.2 143.24 363.52 139.91 348.39 122.94 352.24"/><polygon class="cls-22" points="273.54 203.86 262.17 207.44 254.62 183.5 265.99 179.92 273.54 203.86"/><rect class="cls-17" x="258.12" y="181.13" width="11.92" height="25.1" transform="translate(-46.03 88.4) rotate(-17.5)"/><polygon class="cls-22" points="280.74 174.75 266.25 179.31 263.78 171.49 278.27 166.92 280.74 174.75"/><rect class="cls-17" x="264.67" y="169.01" width="15.19" height="8.21" transform="translate(-39.45 89.87) rotate(-17.5)"/><polygon class="cls-22" points="311.37 191.93 292.14 198 284.59 174.05 303.82 167.99 311.37 191.93"/><rect class="cls-17" x="287.9" y="170.44" width="20.17" height="25.1" transform="translate(-41.24 98.09) rotate(-17.5)"/></g><g class="cls-9"><g class="cls-7"><g class="cls-23"><polygon class="cls-16" points="165 178.52 184.48 175.14 191.6 219.82 174.91 222.27 172 203.95 169.55 204.19 165 178.52"/><polygon class="cls-17" points="165 178.52 184.48 175.14 191.6 219.82 174.91 222.27 172 203.95 169.55 204.19 165 178.52"/><polygon class="cls-16" points="113.94 202.87 132.73 197.27 139.14 221.54 115.69 228.31 110.91 211.16 115.81 209.87 113.94 202.87"/><polygon class="cls-17" points="113.94 202.87 132.73 197.27 139.14 221.54 115.69 228.31 110.91 211.16 115.81 209.87 113.94 202.87"/><polygon class="cls-16" points="191.6 197.89 195.56 213.99 203.62 211.65 205.13 217.49 216.45 214.1 210.38 192.87 191.6 197.89"/><polygon class="cls-17" points="191.6 197.89 195.56 213.99 203.62 211.65 205.13 217.49 216.45 214.1 210.38 192.87 191.6 197.89"/><polygon class="cls-16" points="241.76 200.93 243.44 214.02 257.05 212.13 255.58 199.26 241.76 200.93"/><polygon class="cls-17" points="241.76 200.93 243.44 214.02 257.05 212.13 255.58 199.26 241.76 200.93"/><polygon class="cls-16" points="390.44 118.73 396.89 136.99 419.77 128.98 417.71 122.59 412.5 124.23 408.45 112.61 390.44 118.73"/><polygon class="cls-17" points="390.44 118.73 396.89 136.99 419.77 128.98 417.71 122.59 412.5 124.23 408.45 112.61 390.44 118.73"/><polygon class="cls-16" points="638.66 -15.85 660.6 30.12 687.2 18.22 665.26 -28.21 638.66 -15.85"/><g class="cls-24"><polygon class="cls-17" points="638.66 -15.85 660.6 30.12 687.2 18.22 665.26 -28.21 638.66 -15.85"/></g><polygon class="cls-16" points="604.72 105.6 612.76 119.48 625.25 112.08 618.01 97.96 604.72 105.6"/><polygon class="cls-17" points="604.72 105.6 612.76 119.48 625.25 112.08 618.01 97.96 604.72 105.6"/><polygon class="cls-16" points="586.87 212 595.03 229.03 588.97 232.07 593.98 241.52 617.78 229.85 612.65 220.52 608.91 222.03 600.4 205.35 586.87 212"/><polygon class="cls-17" points="586.87 212 595.03 229.03 588.97 232.07 593.98 241.52 617.78 229.85 612.65 220.52 608.91 222.03 600.4 205.35 586.87 212"/><polygon class="cls-16" points="488.55 160.45 493.4 173.34 505.28 168.99 500.49 155.93 488.55 160.45"/><polygon class="cls-17" points="488.55 160.45 493.4 173.34 505.28 168.99 500.49 155.93 488.55 160.45"/><polygon class="cls-16" points="395.39 195.67 409.51 189.6 418.38 209.2 411.14 212.59 408.58 206.52 400.99 209.9 395.39 195.67"/><polygon class="cls-17" points="395.39 195.67 409.51 189.6 418.38 209.2 411.14 212.59 408.58 206.52 400.99 209.9 395.39 195.67"/><polygon class="cls-16" points="373.25 202.78 390.17 194.97 396.35 207.8 391.33 210.14 392.15 211.77 383.05 215.74 380.95 211.3 377.56 212.82 373.25 202.78"/><polygon class="cls-17" points="373.25 202.78 390.17 194.97 396.35 207.8 391.33 210.14 392.15 211.77 383.05 215.74 380.95 211.3 377.56 212.82 373.25 202.78"/><polygon class="cls-16" points="426.83 274.54 431.81 283.64 445.9 277.07 441 268.32 426.83 274.54"/><polygon class="cls-17" points="426.83 274.54 431.81 283.64 445.9 277.07 441 268.32 426.83 274.54"/><polygon class="cls-16" points="333.81 297.72 337.23 305.42 340.73 303.94 344.4 312.95 353.42 309.27 354.73 312.34 366.63 307.17 357.18 287.05 333.81 297.72"/><polygon class="cls-17" points="333.81 297.72 337.23 305.42 340.73 303.94 344.4 312.95 353.42 309.27 354.73 312.34 366.63 307.17 357.18 287.05 333.81 297.72"/></g></g></g><polygon class="cls-19" points="164.3 177.82 183.78 174.44 190.9 219.12 174.22 221.57 171.3 203.25 168.85 203.49 164.3 177.82"/><polygon class="cls-17" points="164.3 177.82 183.78 174.44 190.9 219.12 174.22 221.57 171.3 203.25 168.85 203.49 164.3 177.82"/><polygon class="cls-19" points="113.24 202.17 132.03 196.57 138.44 220.84 114.99 227.61 110.21 210.46 115.11 209.17 113.24 202.17"/><polygon class="cls-17" points="113.24 202.17 132.03 196.57 138.44 220.84 114.99 227.61 110.21 210.46 115.11 209.17 113.24 202.17"/><polygon class="cls-19" points="190.9 197.19 194.87 213.28 202.91 210.95 204.43 216.78 215.75 213.4 209.68 192.17 190.9 197.19"/><polygon class="cls-17" points="190.9 197.19 194.87 213.28 202.91 210.95 204.43 216.78 215.75 213.4 209.68 192.17 190.9 197.19"/><polygon class="cls-19" points="241.06 200.23 242.74 213.32 256.35 211.43 254.88 198.56 241.06 200.23"/><polygon class="cls-17" points="241.06 200.23 242.74 213.32 256.35 211.43 254.88 198.56 241.06 200.23"/><polygon class="cls-25" points="389.74 118.03 396.19 136.29 419.07 128.28 417.01 121.89 411.8 123.53 407.75 111.91 389.74 118.03"/><polygon class="cls-17" points="389.74 118.03 396.19 136.29 419.07 128.28 417.01 121.89 411.8 123.53 407.75 111.91 389.74 118.03"/><polygon class="cls-19" points="646.86 2.08 659.9 29.42 686.5 17.52 679.21 2.08 646.86 2.08"/><g class="cls-9"><polygon class="cls-17" points="637.97 -16.55 659.9 29.42 686.5 17.52 664.57 -28.91 637.97 -16.55"/></g><polygon class="cls-19" points="604.01 104.9 612.07 118.78 624.55 111.38 617.32 97.26 604.01 104.9"/><polygon class="cls-17" points="604.01 104.9 612.07 118.78 624.55 111.38 617.32 97.26 604.01 104.9"/><polygon class="cls-19" points="586.16 211.3 594.33 228.34 588.26 231.37 593.28 240.82 617.08 229.15 611.95 219.82 608.22 221.34 599.7 204.65 586.16 211.3"/><polygon class="cls-17" points="586.16 211.3 594.33 228.34 588.26 231.37 593.28 240.82 617.08 229.15 611.95 219.82 608.22 221.34 599.7 204.65 586.16 211.3"/><polygon class="cls-19" points="487.85 159.75 492.7 172.64 504.58 168.29 499.79 155.23 487.85 159.75"/><polygon class="cls-17" points="487.85 159.75 492.7 172.64 504.58 168.29 499.79 155.23 487.85 159.75"/><polygon class="cls-19" points="394.69 194.97 408.81 188.9 417.68 208.5 410.44 211.89 407.88 205.82 400.29 209.2 394.69 194.97"/><polygon class="cls-17" points="394.69 194.97 408.81 188.9 417.68 208.5 410.44 211.89 407.88 205.82 400.29 209.2 394.69 194.97"/><polygon class="cls-19" points="372.55 202.09 389.46 194.27 395.65 207.1 390.63 209.44 391.45 211.07 382.35 215.04 380.25 210.6 376.87 212.12 372.55 202.09"/><polygon class="cls-17" points="372.55 202.09 389.46 194.27 395.65 207.1 390.63 209.44 391.45 211.07 382.35 215.04 380.25 210.6 376.87 212.12 372.55 202.09"/><polygon class="cls-19" points="426.13 273.83 431.11 282.94 445.2 276.37 440.3 267.62 426.13 273.83"/><polygon class="cls-17" points="426.13 273.83 431.11 282.94 445.2 276.37 440.3 267.62 426.13 273.83"/><polygon class="cls-19" points="333.12 297.02 336.53 304.72 340.03 303.24 343.7 312.25 352.71 308.57 354.03 311.64 365.93 306.47 356.48 286.35 333.12 297.02"/><polygon class="cls-17" points="333.12 297.02 336.53 304.72 340.03 303.24 343.7 312.25 352.71 308.57 354.03 311.64 365.93 306.47 356.48 286.35 333.12 297.02"/><text class="cls-26" transform="matrix(0.49, 0.87, -0.87, 0.49, 241.53, 38.9)">MOUN<tspan x="29.21" y="0">T</tspan><tspan x="34.44" y="0">AIN </tspan><tspan class="cls-27" x="52.16" y="0">A</tspan><tspan x="55.91" y="0">VE</tspan></text><text class="cls-28" transform="translate(344.42 232.95) rotate(65.48)">HILLTOP RD</text><text class="cls-29" transform="translate(246.33 236.12) rotate(-16.7)">W MAIN ST</text><text class="cls-30" transform="translate(361.25 192.64) rotate(-20.78)">E MAIN ST</text><g class="cls-9"><text class="cls-31" transform="matrix(0.58, 0.81, -0.81, 0.58, 679.31, -33.85)">ORCHARD ST</text></g><text class="cls-32" transform="translate(59.27 287.24) rotate(76.9)">NEW S<tspan x="20.17" y="0">T</tspan><tspan x="23.35" y="0">.</tspan></text><polygon class="cls-33" points="350.84 110.05 377.45 98.38 380.58 105.64 353.73 117.35 350.84 110.05"/><polygon class="cls-17" points="350.84 110.05 377.45 98.38 380.58 105.64 353.73 117.35 350.84 110.05"/><polygon class="cls-34" points="350.49 109.84 377.1 98.17 380.24 105.43 353.38 117.14 350.49 109.84"/><polygon class="cls-17" points="350.49 109.84 377.1 98.17 380.24 105.43 353.38 117.14 350.49 109.84"/><polygon class="cls-33" points="365.53 144.92 370.19 159.48 386.37 154.32 386.42 154.49 393.99 152.06 387.69 132.68 380.14 135.12 382.79 143.23 380.98 143.83 380.09 141.15 373.51 143.31 374.18 145.32 370.76 146.45 369.78 143.5 365.53 144.92"/><polygon class="cls-17" points="365.53 144.92 370.19 159.48 386.37 154.32 386.42 154.49 393.99 152.06 387.69 132.68 380.14 135.12 382.79 143.23 380.98 143.83 380.09 141.15 373.51 143.31 374.18 145.32 370.76 146.45 369.78 143.5 365.53 144.92"/><polygon class="cls-34" points="365.18 144.71 369.84 159.27 386.02 154.11 386.07 154.28 393.64 151.85 387.34 132.47 379.79 134.91 382.44 143.02 380.63 143.62 379.74 140.94 373.16 143.1 373.83 145.11 370.41 146.24 369.43 143.29 365.18 144.71"/><polygon class="cls-17" points="365.18 144.71 369.84 159.27 386.02 154.11 386.07 154.28 393.64 151.85 387.34 132.47 379.79 134.91 382.44 143.02 380.63 143.62 379.74 140.94 373.16 143.1 373.83 145.11 370.41 146.24 369.43 143.29 365.18 144.71"/><text class="cls-35" transform="translate(466.8 386.44)">HILLTOP</text><text class="cls-35" transform="translate(457.19 394.84)">ELEMENTARY</text><g class="cls-9"><text class="cls-35" transform="translate(467.97 403.24)">SCHOOL</text></g><text class="cls-35" transform="translate(482.68 318.82)">MENDHAM </text><text class="cls-35" transform="translate(487.55 327.22)">LIBRARY</text><text class="cls-35" transform="translate(462.38 276.52)">BAILEY FUNERAL </text><text class="cls-35" transform="translate(484.91 284.92)">HOME</text><text class="cls-35" transform="translate(479.21 233.03)">ST. MARKS</text><text class="cls-35" transform="translate(472.12 241.43)">EPIS. CHURCH</text><text class="cls-35" transform="translate(445.17 61.16)">UNITED</text><text class="cls-35" transform="translate(436.72 69.56)">METHODIST</text><text class="cls-35" transform="translate(443.32 77.96)">CHURCH</text><text class="cls-35" transform="translate(414.65 103.24)">TURPIN</text><text class="cls-35" transform="translate(409.01 111.64)">REALTORS</text><text class="cls-35" transform="translate(235.03 153.3)">BLACK HORSE</text><text class="cls-35" transform="translate(255.21 161.7)">INN</text><text class="cls-35" transform="translate(270.24 251.24)">PHOENIX</text><text class="cls-35" transform="translate(274.83 259.64)">HOUSE</text><text class="cls-35" transform="translate(204.37 381.17)">ST. JOSEPHS</text><text class="cls-35" transform="translate(202.84 389.57)">R.G. CHURCH</text><text class="cls-35" transform="translate(335.25 370.36)">G.H. Miller</text><text class="cls-35" transform="translate(311.07 344.02)">E.J. Road</text><text class="cls-35" transform="translate(272.78 319.75)">Charles Nicholas</text><text class="cls-35" transform="translate(411.8 257.71)">W.M.</text><text class="cls-35" transform="translate(406.85 266.11)">Phoenix</text><text class="cls-35" transform="translate(384.51 222.41)">Mary</text><text class="cls-35" transform="translate(379.2 230.81)">Phoenix</text><text class="cls-35" transform="translate(551.18 174.26)">Geo. B.</text><text class="cls-35" transform="translate(553.69 182.66)">Parks</text><text class="cls-35" transform="translate(639.7 123.03)">D. OKeefe</text><text class="cls-35" transform="translate(554.52 31.89)">John</text><text class="cls-35" transform="translate(552.1 40.29)">Feeley</text><text class="cls-35" transform="translate(506.4 57.88)">Mrs. H.</text><text class="cls-35" transform="translate(499.44 66.28)">McPherson</text><text class="cls-35" transform="translate(362.54 121.37)">C.P.</text><text class="cls-35" transform="translate(349.7 129.77)">Bretherton</text><text class="cls-35" transform="translate(333.67 137.1)">Leo</text><text class="cls-35" transform="translate(322.93 145.5)">Robinson</text><text class="cls-35" transform="translate(324.54 40.79)">J.M.</text><text class="cls-35" transform="translate(316.28 49.19)">Hoffman</text><text class="cls-35" transform="translate(303.49 14.2)">Jas</text><text class="cls-35" transform="translate(291.19 22.6)">Buchanan</text><text class="cls-35" transform="translate(167.33 50.18)">John</text><text class="cls-35" transform="translate(161.57 58.58)">Conglan</text><text class="cls-35" transform="translate(201.61 79.4)">J.M.</text><text class="cls-35" transform="translate(193.34 87.8)">Hoffman</text><text class="cls-35" transform="translate(132.6 163.05)">Miss Mary</text><text class="cls-35" transform="translate(137.57 171.45)">Cramer</text><text class="cls-35" transform="translate(80.93 208.9)">Freeman</text><text class="cls-35" transform="translate(87.52 217.3)">Bros.</text><g class="cls-9"><text class="cls-35" transform="translate(-18.31 209.95)">Jos. L.</text><text class="cls-35" transform="translate(-26.26 218.35)">Babb<tspan x="18.51" y="0">i</tspan><tspan x="20.98" y="0">t Est.</tspan></text></g><text class="cls-35" transform="translate(38.15 200.03)">J.M.</text><text class="cls-35" transform="translate(29.88 208.43)">Hoffman</text><text class="cls-35" transform="translate(151.96 282.81)">Parish</text><text class="cls-35" transform="translate(157.17 291.21)">Ho.</text><text class="cls-35" transform="translate(114.88 320.55)">John</text><text class="cls-35" transform="translate(108.64 328.95)">Lindsley</text><text class="cls-35" transform="translate(42.04 346.53)">G.S.</text><text class="cls-35" transform="translate(30.14 354.93)">Thompson</text><polygon class="cls-4" points="542.11 362.99 542.04 364.28 546.17 366.26 548.98 364.44 549.2 363.56 549.43 362.69 542.11 362.99"/><g class="cls-36"><path class="cls-16" d="M551,366a0.58,0.58,0,0,0-.23-0.48v-3.33a0.12,0.12,0,0,0,0-.19l-5.06-2.42a0.21,0.21,0,0,0-.2,0L540.45,362a0.1,0.1,0,0,0-.05.1,0.11,0.11,0,0,0,0,.09l5.06,2.67a0.22,0.22,0,0,0,.22,0l4.71-2.49v3.14a0.63,0.63,0,0,0,0,1,5.83,5.83,0,0,0-.24,1.39,0.42,0.42,0,1,0,.8,0,5.78,5.78,0,0,0-.24-1.39A0.57,0.57,0,0,0,551,366"/></g><g class="cls-9"><path class="cls-16" d="M542,363.57v1.81c0,1.43,1.59,2.59,3.58,2.66s3.58-1.23,3.58-2.66c0-.14,0-1,0-1.81l-3.47,1.83a0.22,0.22,0,0,1-.22,0Z"/><path class="cls-16" d="M196.16,336.91l-4.23,1a0.86,0.86,0,0,0-.72-0.31l-1.2-5.28a0.77,0.77,0,1,0-1.51.34l1.2,5.28a0.86,0.86,0,0,0-.52.59l-4.23,1a0.59,0.59,0,0,0-.45.71l0.08,0.36a0.59,0.59,0,0,0,.71.45l4.23-1a0.86,0.86,0,0,0,.72.31l2.73,12a0.77,0.77,0,1,0,1.51-.34l-2.73-12a0.86,0.86,0,0,0,.52-0.59l4.23-1a0.59,0.59,0,0,0,.45-0.71l-0.08-.36a0.59,0.59,0,0,0-.71-0.45"/><path class="cls-16" d="M488.79,185.34l-2.74,1.06a0.58,0.58,0,0,0-.51-0.14l-1.32-3.42a0.52,0.52,0,0,0-1,.38l1.32,3.42a0.58,0.58,0,0,0-.29.45l-2.74,1.06a0.4,0.4,0,0,0-.23.52l0.09,0.23a0.4,0.4,0,0,0,.52.23l2.74-1.06a0.58,0.58,0,0,0,.51.14l3,7.8a0.52,0.52,0,0,0,1-.38l-3-7.8a0.58,0.58,0,0,0,.29-0.45l2.74-1.06a0.4,0.4,0,0,0,.23-0.52l-0.09-.23a0.4,0.4,0,0,0-.52-0.23"/><polygon class="cls-4" points="445.73 335.2 445.67 341.5 447.59 341.79 450.01 342.29 452.55 341.65 454.33 341.24 454.33 335.2 452.14 335.2 450.01 336.28 448.15 335.38 445.73 335.2"/><path class="cls-16" d="M471.19,95.81l-2.71,1.09a0.58,0.58,0,0,0-.51-0.13l-1.36-3.38a0.52,0.52,0,0,0-1,.39L467,97.16a0.58,0.58,0,0,0-.28.45L464,98.7a0.4,0.4,0,0,0-.22.52l0.09,0.23a0.4,0.4,0,0,0,.52.22l2.71-1.09a0.58,0.58,0,0,0,.51.13l3.11,7.71a0.52,0.52,0,0,0,1-.39l-3.11-7.71a0.58,0.58,0,0,0,.28-0.45l2.71-1.09a0.4,0.4,0,0,0,.22-0.52L471.71,96a0.4,0.4,0,0,0-.52-0.22"/><path class="cls-16" d="M454.91,335.45h-0.42V335h-0.15c-3,0-4,.71-4.32,1.1-0.32-.39-1.33-1.1-4.32-1.1h-0.15v0.47h-0.77v6.79h0.35c3.69,0,4.44.85,4.55,1h0.69c0.12-.16.89-1,4.55-1h0.35v-6.79h-0.35Zm-5.13,6.48c-0.51-.38-1.6-0.82-3.86-0.85v-5.71c3.17,0,3.78.91,3.86,1v5.51Zm4.32-.85c-2.26,0-3.34.47-3.86,0.85v-5.51c0.09-.16.72-1,3.86-1.05v5.71Z"/><polygon class="cls-4" points="315.69 237.61 317.25 241.41 323.51 239.23 321.56 235.47 318.74 235.23 315.69 237.61"/><polygon class="cls-16" points="316.75 239.05 317.5 238.79 318.28 241.05 316.78 241.57 315.47 237.82 314.74 238.07 314.49 237.35 317.8 233.65 322.69 234.48 322.94 235.22 322.19 235.48 323.51 239.23 322.01 239.75 321.24 237.5 321.97 237.25 321.44 235.74 319.23 236.51 319.75 238.01 320.47 237.76 321.25 240.01 319.03 240.79 318.24 238.53 318.98 238.27 318.46 236.78 316.21 237.56 316.75 239.05"/><rect class="cls-16" x="316.19" y="241.12" width="8.69" height="0.79" transform="translate(-61.47 118.45) rotate(-19.14)"/></g></g></g></g></g></svg>